<svg xmlns="http://www.w3.org/2000/svg" version="1.1" xmlns:xlink="http://www.w3.org/1999/xlink" xmlns:svgjs="http://svgjs.dev/svgjs" viewBox="0 0 800 800" opacity="0.44"><defs><filter id="bbburst-blur-1" x="-100%" y="-100%" width="400%" height="400%"><feGaussianBlur in="SourceGraphic" stdDeviation="1"></feGaussianBlur></filter><filter id="bbburst-blur-2" x="-100%" y="-100%" width="400%" height="400%"><feGaussianBlur in="SourceGraphic" stdDeviation="2"></feGaussianBlur></filter><filter id="bbburst-blur-3" x="-100%" y="-100%" width="400%" height="400%"><feGaussianBlur in="SourceGraphic" stdDeviation="4"></feGaussianBlur></filter><filter id="bbburst-blur-4" x="-100%" y="-100%" width="400%" height="400%"><feGaussianBlur in="SourceGraphic" stdDeviation="12"></feGaussianBlur></filter><symbol id="bbburst-shape-1" viewBox="0 0 194 167"><path d="m97 0 96.129 166.5H.871L97 0Z"></path></symbol><symbol id="bbburst-shape-3" viewBox="0 0 131 127"><path d="m66 0 66 63.5L66 127 0 63.5 66 0Z"></path></symbol><symbol id="bbburst-shape-4" viewBox="0 0 149 143"><path d="M71.647 2.781c.898-2.764 4.808-2.764 5.706 0l15.445 47.534a3 3 0 0 0 2.853 2.073h49.98c2.906 0 4.115 3.719 1.764 5.427L106.96 87.193a2.999 2.999 0 0 0-1.09 3.354l15.445 47.534c.898 2.764-2.266 5.062-4.617 3.354l-40.435-29.378a3 3 0 0 0-3.526 0l-40.435 29.378c-2.351 1.708-5.515-.59-4.617-3.354L43.13 90.547a3 3 0 0 0-1.09-3.354L1.605 57.815c-2.35-1.708-1.142-5.427 1.764-5.427h49.98a3 3 0 0 0 2.853-2.073L71.647 2.781Z"></path></symbol><symbol id="bbburst-shape-6" viewBox="0 0 133 116"><path d="M59.7487 10.2513c-13.6683-13.66839-35.8291-13.66839-49.4974 0-13.66839 13.6683-13.66839 35.8291 0 49.4974l49.4974-49.4974ZM66.5 66.5 41.7513 91.2487 66.5 115.997l24.7487-24.7483L66.5 66.5Zm56.249-6.7513c13.668-13.6683 13.668-35.8291 0-49.4974-13.669-13.66839-35.8294-13.66839-49.4977 0l49.4977 49.4974Zm-112.4977 0 31.5 31.5 49.4974-49.4974-31.5-31.5-49.4974 49.4974Zm80.9974 31.5 31.5003-31.5-49.4977-49.4974-31.5 31.5 49.4974 49.4974Z"></path></symbol><symbol id="bbburst-shape-8" viewBox="0 0 87 168"><path d="m12 12 31.2546 18.0749c16.4102 9.4902 20.014 31.6325 7.4603 45.8369L36.3296 92.1884c-12.5684 14.2206-8.9394 36.3916 7.5068 45.8636L75 156" stroke-width="14" stroke-linecap="round" stroke-linejoin="round"></path></symbol><symbol id="bbburst-shape-10" viewBox="0 0 145 145"><circle cx="72.5" cy="72.5" r="61.5" fill="none" stroke-width="22"></circle></symbol><symbol id="bbburst-shape-12" viewBox="0 0 170 151"><path d="M69.3728 54.2122 85 10.0031l15.627 44.2091c1.413 3.9958 5.19 6.6672 9.428 6.6673h49.312l-39.149 26.1447c-3.803 2.5401-5.399 7.3367-3.875 11.6488l15.179 42.94-40.9683-27.36c-3.3621-2.245-7.7453-2.245-11.1074 0l-40.9682 27.36 15.1785-42.94c1.5243-4.3121-.0712-9.1087-3.8746-11.6488L10.6333 60.8795h49.3112c4.2381-.0001 8.0159-2.6715 9.4283-6.6673Z" stroke-width="12"></path></symbol><symbol id="bbburst-shape-14" viewBox="0 0 185 109"><path d="M168 16.5C168 58.1975 134.197 92 92.5 92 50.8025 92 17 58.1975 17 16.5" stroke-width="33" stroke-linecap="round"></path></symbol></defs><use xlink:href="#bbburst-shape-4" width="12.23263985954891" opacity="0.7582304921543124" transform="matrix(0.8105924837108591,-0.5856106431336956,0.5856106431336956,0.8105924837108591,199.80326299932437,-22.212538032324346)" fill="#00a19d" filter="url(#bbburst-blur-1)"></use><use xlink:href="#bbburst-shape-4" width="17.276018808860783" opacity="0.7285841778340152" transform="matrix(0.7418307497018564,0.6705871597315161,-0.6705871597315161,0.7418307497018564,558.5571560903253,32.25637859106462)" fill="#ff5c58" filter="url(#bbburst-blur-1)"></use><use xlink:href="#bbburst-shape-1" width="10.382408461247715" opacity="0.7590959348536268" transform="matrix(0.9968628054023195,0.07914889263544482,-0.07914889263544482,0.9968628054023195,371.6059497071682,94.34790600587104)" fill="#ffa6d5" filter="url(#bbburst-blur-1)"></use><use xlink:href="#bbburst-shape-6" width="7.187514655645366" opacity="0.949531960271204" transform="matrix(0.9935720243236237,-0.1132017335620642,0.1132017335620642,0.9935720243236237,371.76263140745624,-6.552726328846177)" fill="#2c2891"></use><use xlink:href="#bbburst-shape-3" width="14.811461676087244" opacity="0.6881056980635888" transform="matrix(0.9741852336326455,-0.22575015076873778,0.22575015076873778,0.9741852336326455,284.76890059298574,151.24729971508236)" fill="#2c2891" filter="url(#bbburst-blur-1)"></use><use xlink:href="#bbburst-shape-14" width="13.081100077859434" opacity="0.6811905417617954" transform="matrix(0.7509077179734213,0.6604071464543284,-0.6604071464543284,0.7509077179734213,530.7469602160843,159.1396312714848)" fill="none" stroke="#ffa6d5" filter="url(#bbburst-blur-1)"></use><use xlink:href="#bbburst-shape-8" width="7.472186041956835" opacity="0.9015044839970178" transform="matrix(0.9623482984190511,0.2718193380353153,-0.2718193380353153,0.9623482984190511,549.0580171174306,19.966205858216313)" fill="none" stroke="#00a19d"></use><use xlink:href="#bbburst-shape-4" width="22.625675174349563" opacity="0.5101712956531506" transform="matrix(0.8084714992382539,0.5885353302219417,-0.5885353302219417,0.8084714992382539,806.9846253131867,196.1578896913843)" fill="#ffa6d5" filter="url(#bbburst-blur-2)"></use><use xlink:href="#bbburst-shape-12" width="7.042681590946602" opacity="0.8561042623025465" transform="matrix(0.9258992518916676,0.3777705326603047,-0.3777705326603047,0.9258992518916676,529.088666257984,90.27302587320395)" fill="none" stroke="#00a19d"></use><use xlink:href="#bbburst-shape-8" width="19.52797239934659" opacity="0.5311310632474668" transform="matrix(0.8425921064469978,-0.538552265015394,0.538552265015394,0.8425921064469978,141.85723771989313,-139.93057638976873)" fill="none" stroke="#ffa6d5" filter="url(#bbburst-blur-2)"></use><use xlink:href="#bbburst-shape-1" width="34.476524545225814" opacity="0.2472722419368527" transform="matrix(1.2448968143921733,0.11283581663735662,-0.11283581663735662,1.2448968143921733,567.787461562826,-406.38776219366014)" fill="#00a19d" filter="url(#bbburst-blur-3)"></use><use xlink:href="#bbburst-shape-6" width="24.92071882414554" opacity="0.2557218451072468" transform="matrix(0.9950757853785956,0.7565211043673343,-0.7565211043673343,0.9950757853785956,393.1314855990362,-162.11643292898896)" fill="#ff5c58" filter="url(#bbburst-blur-3)"></use><use xlink:href="#bbburst-shape-14" width="27.709770657861892" opacity="0.40522442135204195" transform="matrix(0.9823514524292639,-0.1870444436761374,0.1870444436761374,0.9823514524292639,392.86768245521677,-245.31842796241747)" fill="none" stroke="#2c2891" filter="url(#bbburst-blur-2)"></use><use xlink:href="#bbburst-shape-10" width="35.64537256440036" opacity="0.04119112755354193" transform="matrix(1.734700728437677,-0.2308969093725433,0.2308969093725433,1.734700728437677,508.29864998449705,-653.8178874256553)" fill="none" stroke="#00a19d" filter="url(#bbburst-blur-4)"></use><use xlink:href="#bbburst-shape-6" width="10.075037788688016" opacity="0.8020069949342244" transform="matrix(0.9970788612820932,0.07637895249611809,-0.07637895249611809,0.9970788612820932,349.1752632486381,-45.1333736656145)" fill="#ffbd9b"></use><use xlink:href="#bbburst-shape-8" width="5.198041033127074" opacity="0.9633430186703694" transform="matrix(0.9465992459576342,0.32241257350239655,-0.32241257350239655,0.9465992459576342,531.5012316373584,36.243090753775505)" fill="none" stroke="#ffbd9b"></use><use xlink:href="#bbburst-shape-14" width="32.73495447464559" opacity="0.30062280971840505" transform="matrix(1.095273533373993,0.6023918052982205,-0.6023918052982205,1.095273533373993,860.8237453266105,-254.0513791593012)" fill="none" stroke="#00a19d" filter="url(#bbburst-blur-3)"></use><use xlink:href="#bbburst-shape-3" width="18.60666180030488" opacity="0.5187146086078651" transform="matrix(0.7086191631085655,-0.7055911575943368,0.7055911575943368,0.7086191631085655,138.6358710650801,-91.6566767393123)" fill="#ffbd9b" filter="url(#bbburst-blur-2)"></use><use xlink:href="#bbburst-shape-10" width="21.52614283762" opacity="0.13948803897941464" transform="matrix(1.0348749705133622,0.701094712150197,-0.701094712150197,1.0348749705133622,780.2593036625655,-392.4882036965623)" fill="none" stroke="#ffa6d5" filter="url(#bbburst-blur-3)"></use><use xlink:href="#bbburst-shape-8" width="21.014701288879337" opacity="0.5721573311929894" transform="matrix(0.9916630223023466,0.12885825622821195,-0.12885825622821195,0.9916630223023466,250.07726260211732,25.83054076482847)" fill="none" stroke="#ffa6d5" filter="url(#bbburst-blur-1)"></use><use xlink:href="#bbburst-shape-6" width="21.854873509018354" opacity="0.6148378093649264" transform="matrix(0.9142979836717908,0.4050422163845365,-0.4050422163845365,0.9142979836717908,717.640994628415,80.96736171828854)" fill="#ffa6d5" filter="url(#bbburst-blur-1)"></use><use xlink:href="#bbburst-shape-4" width="4.97786517805502" opacity="0.9314235866142464" transform="matrix(0.9938178377352554,-0.1110229949119614,0.1110229949119614,0.9938178377352554,365.477851097761,31.029637160808647)" fill="#ffbd9b"></use><use xlink:href="#bbburst-shape-6" width="20.419528691771305" opacity="0.4511137674385073" transform="matrix(0.9655865035106146,-0.2600821105692314,0.2600821105692314,0.9655865035106146,127.146806257347,205.46989751275288)" fill="#ffbd9b" filter="url(#bbburst-blur-2)"></use><use xlink:href="#bbburst-shape-12" width="18.182502710619758" opacity="0.6334923680714128" transform="matrix(0.7282135465754146,-0.68535029771939,0.68535029771939,0.7282135465754146,-11.811361853678363,215.08604735501643)" fill="none" stroke="#2c2891" filter="url(#bbburst-blur-1)"></use><use xlink:href="#bbburst-shape-6" width="17.006425344592657" opacity="0.6525253015717805" transform="matrix(0.9985216987695522,0.05435454982214051,-0.05435454982214051,0.9985216987695522,569.6142421329779,-0.2864772448929216)" fill="#2c2891" filter="url(#bbburst-blur-1)"></use><use xlink:href="#bbburst-shape-10" width="22.091554155213245" opacity="0.5999633541875846" transform="matrix(0.7200094952087083,-0.693964211475852,0.693964211475852,0.7200094952087083,233.94787649803317,254.30511850922363)" fill="none" stroke="#00a19d" filter="url(#bbburst-blur-1)"></use><use xlink:href="#bbburst-shape-3" width="11.901986436348103" opacity="0.7570407486423582" transform="matrix(0.8828199160356093,-0.4697116092357946,0.4697116092357946,0.8828199160356093,99.3300256937813,69.66300934589395)" fill="#ffa6d5" filter="url(#bbburst-blur-1)"></use><use xlink:href="#bbburst-shape-4" width="11.488626019209065" opacity="0.726472211049598" transform="matrix(0.997252991475368,-0.07407071616657834,0.07407071616657834,0.997252991475368,485.95323287830985,22.381557136986714)" fill="#00a19d" filter="url(#bbburst-blur-1)"></use><use xlink:href="#bbburst-shape-14" width="28.702870322379276" opacity="0.13230297166472782" transform="matrix(1.0757353586787883,0.6366266080586159,-0.6366266080586159,1.0757353586787883,1006.0718116061695,94.24428957919872)" fill="none" stroke="#ff5c58" filter="url(#bbburst-blur-3)"></use><use xlink:href="#bbburst-shape-10" width="16.368794739086866" opacity="0.6501197678624067" transform="matrix(0.9834766540999319,-0.18103499893778274,0.18103499893778274,0.9834766540999319,283.6968699517172,-145.2216622570923)" fill="none" stroke="#00a19d" filter="url(#bbburst-blur-1)"></use><use xlink:href="#bbburst-shape-6" width="6.216621734155571" opacity="0.9180755194930007" transform="matrix(0.8143152467224344,-0.5804228449633774,0.5804228449633774,0.8143152467224344,157.48980898967653,112.10735004697187)" fill="#ffbd9b"></use><use xlink:href="#bbburst-shape-3" width="15.3461511157988" opacity="0.7405293570677589" transform="matrix(0.9722247927895324,-0.234049038206421,0.234049038206421,0.9722247927895324,345.15190730537785,120.1143335078358)" fill="#ffa6d5" filter="url(#bbburst-blur-1)"></use><use xlink:href="#bbburst-shape-1" width="32.48570736943265" opacity="0.037325856657651424" transform="matrix(1.7453423659002474,-0.127593204339915,0.127593204339915,1.7453423659002474,686.0924812753004,-528.5727789845796)" fill="#ffbd9b" filter="url(#bbburst-blur-4)"></use><use xlink:href="#bbburst-shape-4" width="28.35004068175358" opacity="0.3104190307618936" transform="matrix(1.2347337607607862,0.19476277888119675,-0.19476277888119675,1.2347337607607862,150.9706214583765,-73.21150776536746)" fill="#00a19d" filter="url(#bbburst-blur-3)"></use><use xlink:href="#bbburst-shape-14" width="19.93080639862431" opacity="0.4182540280206074" transform="matrix(0.9610357912485846,0.27642396411889997,-0.27642396411889997,0.9610357912485846,503.4137606453528,-248.91753046161443)" fill="none" stroke="#2c2891" filter="url(#bbburst-blur-2)"></use><use xlink:href="#bbburst-shape-14" width="13.054031932888442" opacity="0.7466497471814969" transform="matrix(0.891965551624044,0.4521033672911703,-0.4521033672911703,0.891965551624044,662.4098077864564,113.48569672120561)" fill="none" stroke="#00a19d" filter="url(#bbburst-blur-1)"></use><use xlink:href="#bbburst-shape-8" width="5.898573092674161" opacity="0.9601037803402899" transform="matrix(0.9992571656583045,-0.038537214228999105,0.038537214228999105,0.9992571656583045,378.5499394669985,-17.274929206542197)" fill="none" stroke="#00a19d"></use><use xlink:href="#bbburst-shape-8" width="27.1075238419898" opacity="0.3759696167623279" transform="matrix(0.9956415867443232,-0.09326216137987774,0.09326216137987774,0.9956415867443232,493.8801762968888,243.6816742408301)" fill="none" stroke="#ff5c58" filter="url(#bbburst-blur-2)"></use><use xlink:href="#bbburst-shape-10" width="46.869075147317155" opacity="-0.09562663503187863" transform="matrix(1.373115012647845,1.084921730836427,-1.084921730836427,1.373115012647845,1149.098194887884,-524.6103767990678)" fill="none" stroke="#2c2891" filter="url(#bbburst-blur-4)"></use><use xlink:href="#bbburst-shape-4" width="18.395537731296557" opacity="0.649244806768738" transform="matrix(0.9048000181011443,-0.4258367377812405,0.4258367377812405,0.9048000181011443,304.28041884849495,-92.28634071217044)" fill="#2c2891" filter="url(#bbburst-blur-1)"></use><use xlink:href="#bbburst-shape-3" width="29.85756035357369" opacity="0.37592682780832753" transform="matrix(0.9644680454592889,0.2641995255255751,-0.2641995255255751,0.9644680454592889,651.3363930625258,-220.4438783197145)" fill="#00a19d" filter="url(#bbburst-blur-2)"></use><use xlink:href="#bbburst-shape-10" width="9.896007445150662" opacity="0.8423313047812693" transform="matrix(0.896079464254205,0.4438936739151582,-0.4438936739151582,0.896079464254205,590.1115298495836,-29.51536030233109)" fill="none" stroke="#ffa6d5"></use><use xlink:href="#bbburst-shape-14" width="35.0393327232182" opacity="0.32527856815057776" transform="matrix(1.0764941305402536,0.6353427318482391,-0.6353427318482391,1.0764941305402536,412.34993045371476,-247.84440981996835)" fill="none" stroke="#00a19d" filter="url(#bbburst-blur-3)"></use><use xlink:href="#bbburst-shape-10" width="8.508897844519899" opacity="0.7967693590780478" transform="matrix(0.9218314245783921,0.3875910533794249,-0.3875910533794249,0.9218314245783921,577.1998203765733,117.27318277773304)" fill="none" stroke="#00a19d"></use><use xlink:href="#bbburst-shape-3" width="24.635635527727644" opacity="0.3606127503058755" transform="matrix(0.9889024512630068,0.14856628785164,-0.14856628785164,0.9889024512630068,733.4465932949402,31.246418997144133)" fill="#2c2891" filter="url(#bbburst-blur-2)"></use><use xlink:href="#bbburst-shape-10" width="18.239035724572283" opacity="0.6323267191385897" transform="matrix(0.778819204182451,-0.6272484732517201,0.6272484732517201,0.778819204182451,151.03949552250737,259.3982670637523)" fill="none" stroke="#2c2891" filter="url(#bbburst-blur-1)"></use><use xlink:href="#bbburst-shape-6" width="14.140966630569366" opacity="0.7620077238268796" transform="matrix(0.8280067332835369,-0.5607181552590621,0.5607181552590621,0.8280067332835369,67.5596009625246,41.06623581254706)" fill="#ffa6d5" filter="url(#bbburst-blur-1)"></use><use xlink:href="#bbburst-shape-8" width="31.510324951607817" opacity="0.015027881088906514" transform="matrix(1.6019154066747892,0.7045331999685639,-0.7045331999685639,1.6019154066747892,392.6345537588186,-607.9489781319821)" fill="none" stroke="#ffbd9b" filter="url(#bbburst-blur-4)"></use><use xlink:href="#bbburst-shape-10" width="34.41122495187321" opacity="0.40640869849269545" transform="matrix(0.9037245277460876,0.42811444492111106,-0.42811444492111106,0.9037245277460876,409.52157909797336,-192.42646157997095)" fill="none" stroke="#ffa6d5" filter="url(#bbburst-blur-2)"></use><use xlink:href="#bbburst-shape-1" width="21.783004055695315" opacity="0.4562648576687728" transform="matrix(0.7530178065353612,0.6580001390886429,-0.6580001390886429,0.7530178065353612,410.3692296499773,85.79687681762266)" fill="#2c2891" filter="url(#bbburst-blur-2)"></use><use xlink:href="#bbburst-shape-12" width="8.06236708603939" opacity="0.8174079826163019" transform="matrix(0.9951908317386974,0.09795513474667758,-0.09795513474667758,0.9951908317386974,423.565127967931,82.85676961285435)" fill="none" stroke="#2c2891"></use><use xlink:href="#bbburst-shape-8" width="36.83693158022904" opacity="0.03412573159743293" transform="matrix(1.5912410254460736,-0.728321356914191,0.728321356914191,1.5912410254460736,325.794850429936,134.94939116046498)" fill="none" stroke="#2c2891" filter="url(#bbburst-blur-4)"></use><use xlink:href="#bbburst-shape-3" width="22.107464471454552" opacity="0.4350616766691833" transform="matrix(0.9182047302152223,-0.3961061390718287,0.3961061390718287,0.9182047302152223,-17.720138964301157,88.14713373441037)" fill="#00a19d" filter="url(#bbburst-blur-2)"></use><use xlink:href="#bbburst-shape-10" width="6.887637814066064" opacity="0.8791777472885441" transform="matrix(0.7353752705566492,0.6776601002373793,-0.6776601002373793,0.7353752705566492,664.187695949299,157.71236443924)" fill="none" stroke="#00a19d"></use><use xlink:href="#bbburst-shape-8" width="23.487431140020743" opacity="0.2599837303172383" transform="matrix(0.9401648180623668,-0.8237658131275881,0.8237658131275881,0.9401648180623668,-52.085494767247155,-280.16426348722536)" fill="none" stroke="#ffa6d5" filter="url(#bbburst-blur-3)"></use><use xlink:href="#bbburst-shape-10" width="39.708457779863345" opacity="0.21813995916442297" transform="matrix(1.2277900167102154,0.2345883093138465,-0.2345883093138465,1.2277900167102154,266.6159152626661,-383.2525982128553)" fill="none" stroke="#00a19d" filter="url(#bbburst-blur-3)"></use><use xlink:href="#bbburst-shape-6" width="26.886103714444513" opacity="0.2619625779490893" transform="matrix(0.9640041296897779,0.7957361610113328,-0.7957361610113328,0.9640041296897779,752.3508119379296,-325.07061162931143)" fill="#ffa6d5" filter="url(#bbburst-blur-3)"></use><use xlink:href="#bbburst-shape-14" width="28.36038827265068" opacity="0.18171769810158422" transform="matrix(1.1387754377822241,0.515451745853968,-0.515451745853968,1.1387754377822241,957.7198735274196,-82.33884206636799)" fill="none" stroke="#00a19d" filter="url(#bbburst-blur-3)"></use><use xlink:href="#bbburst-shape-14" width="17.861299782308254" opacity="0.5746894497241228" transform="matrix(0.9152239567880891,0.40294554088754236,-0.40294554088754236,0.9152239567880891,513.6729326981696,217.6406694533951)" fill="none" stroke="#00a19d" filter="url(#bbburst-blur-1)"></use><use xlink:href="#bbburst-shape-8" width="6.566441847157965" opacity="0.9519322708826016" transform="matrix(0.7949981989707181,-0.6066117898898064,0.6066117898898064,0.7949981989707181,175.4905808638507,90.11639939622825)" fill="none" stroke="#ff5c58"></use><use xlink:href="#bbburst-shape-14" width="14.728350172399146" opacity="0.687129139428641" transform="matrix(0.9445606805974249,0.3283369011691032,-0.3283369011691032,0.9445606805974249,441.7952194901928,133.80897582421238)" fill="none" stroke="#2c2891" filter="url(#bbburst-blur-1)"></use><use xlink:href="#bbburst-shape-6" width="18.870438365604855" opacity="0.5626811699055476" transform="matrix(0.9855568944252535,0.16934464222658369,-0.16934464222658369,0.9855568944252535,625.7135822511385,-99.48736300150756)" fill="#00a19d" filter="url(#bbburst-blur-1)"></use><use xlink:href="#bbburst-shape-8" width="10.4439035403451" opacity="0.807474128484588" transform="matrix(0.7078690739012274,0.7063436657988933,-0.7063436657988933,0.7078690739012274,596.5389010086903,140.22437999738463)" fill="none" stroke="#00a19d"></use><use xlink:href="#bbburst-shape-6" width="20.65356669899569" opacity="0.5370229515416023" transform="matrix(0.867383342601904,0.49764057006713996,-0.49764057006713996,0.867383342601904,687.2744474640746,232.1965026747169)" fill="#ff5c58" filter="url(#bbburst-blur-2)"></use><use xlink:href="#bbburst-shape-6" width="10.59978355927503" opacity="0.7288366818300362" transform="matrix(0.7410354981093809,-0.6714658521040231,0.6714658521040231,0.7410354981093809,35.83684971989129,187.7057886473999)" fill="#2c2891" filter="url(#bbburst-blur-1)"></use><use xlink:href="#bbburst-shape-8" width="15.45910840612431" opacity="0.6800665648292719" transform="matrix(0.9615101720222888,-0.2747693379867349,0.2747693379867349,0.9615101720222888,141.07420922117302,43.61142940208947)" fill="none" stroke="#2c2891" filter="url(#bbburst-blur-1)"></use><use xlink:href="#bbburst-shape-10" width="30.783665262064247" opacity="0.18354522185492061" transform="matrix(1.2254201909252573,0.2466685137440653,-0.2466685137440653,1.2254201909252573,123.91003803335738,-185.20234617696906)" fill="none" stroke="#2c2891" filter="url(#bbburst-blur-3)"></use><use xlink:href="#bbburst-shape-3" width="17.038407547000336" opacity="0.5749759529623677" transform="matrix(0.9170004992434255,0.39888605439060965,-0.39888605439060965,0.9170004992434255,464.80243044314955,200.1650020682481)" fill="#2c2891" filter="url(#bbburst-blur-1)"></use><use xlink:href="#bbburst-shape-6" width="30.94588953834255" opacity="0.20933831129074199" transform="matrix(1.0501039937624044,-0.6780719742654524,0.6780719742654524,1.0501039937624044,463.25833660589194,50.258057861692976)" fill="#00a19d" filter="url(#bbburst-blur-3)"></use><use xlink:href="#bbburst-shape-12" width="11.527540894028277" opacity="0.7642916611892393" transform="matrix(0.7713091812317298,0.6364606405329701,-0.6364606405329701,0.7713091812317298,735.1398779306262,24.32823204271466)" fill="none" stroke="#ffa6d5" filter="url(#bbburst-blur-1)"></use><use xlink:href="#bbburst-shape-4" width="7.4761778411516335" opacity="0.9404866168116918" transform="matrix(0.9965569276598114,0.08291133778463229,-0.08291133778463229,0.9965569276598114,404.7824487750555,11.528268945385378)" fill="#2c2891"></use><use xlink:href="#bbburst-shape-14" width="11.558132825111851" opacity="0.8366348757542595" transform="matrix(0.9328594746535334,0.360240476000593,-0.360240476000593,0.9328594746535334,598.9310787470456,-17.359779173091397)" fill="none" stroke="#00a19d"></use><use xlink:href="#bbburst-shape-3" width="6.957553190650487" opacity="0.8581153500111814" transform="matrix(0.9147537461841879,0.40401186101647346,-0.40401186101647346,0.9147537461841879,494.6564551442371,28.99923224159727)" fill="#ff5c58"></use><use xlink:href="#bbburst-shape-10" width="37.049860976075706" opacity="-0.09358395034745337" transform="matrix(1.7051030568587227,-0.39385729076791165,0.39385729076791165,1.7051030568587227,-147.85553036938882,-611.6291167502609)" fill="none" stroke="#2c2891" filter="url(#bbburst-blur-4)"></use><use xlink:href="#bbburst-shape-10" width="21.401595038815937" opacity="0.11938756086029234" transform="matrix(1.1194915719182124,-0.5560922768786576,0.5560922768786576,1.1194915719182124,296.9766582744008,332.01256281979306)" fill="none" stroke="#2c2891" filter="url(#bbburst-blur-3)"></use><use xlink:href="#bbburst-shape-10" width="25.213046179033324" opacity="0.5471505783036912" transform="matrix(0.7601243964051754,-0.6497775788603881,0.6497775788603881,0.7601243964051754,45.33919471772356,-80.99001537478483)" fill="none" stroke="#ff5c58" filter="url(#bbburst-blur-2)"></use><use xlink:href="#bbburst-shape-4" width="13.44394342617743" opacity="0.7455375534254554" transform="matrix(0.8069746966189307,0.5905860132248177,-0.5905860132248177,0.8069746966189307,527.5119041599326,122.67788910229592)" fill="#00a19d" filter="url(#bbburst-blur-1)"></use><use xlink:href="#bbburst-shape-6" width="31.41948334013889" opacity="0.2244637576085844" transform="matrix(1.150088976342163,-0.4896890304021889,0.4896890304021889,1.150088976342163,490.3310536161992,118.57348216359907)" fill="#ffa6d5" filter="url(#bbburst-blur-3)"></use><use xlink:href="#bbburst-shape-4" width="28.39283051424151" opacity="0.17558203904200964" transform="matrix(1.2099129146327487,-0.31402346887595356,0.31402346887595356,1.2099129146327487,255.40198735746486,291.5076488764133)" fill="#2c2891" filter="url(#bbburst-blur-3)"></use><use xlink:href="#bbburst-shape-10" width="17.51853559714616" opacity="0.5507082761903597" transform="matrix(0.9985024837974774,-0.05470639679478371,0.05470639679478371,0.9985024837974774,562.0081238843798,-60.30849599544575)" fill="none" stroke="#00a19d" filter="url(#bbburst-blur-2)"></use><use xlink:href="#bbburst-shape-10" width="16.27224437750492" opacity="0.7208253590220766" transform="matrix(0.9915398208453955,-0.12980286467517185,0.12980286467517185,0.9915398208453955,357.86285222169994,128.79398885173453)" fill="none" stroke="#00a19d" filter="url(#bbburst-blur-1)"></use><use xlink:href="#bbburst-shape-8" width="12.760615422960358" opacity="0.8261456207811192" transform="matrix(0.99925306406019,-0.0386434207378409,0.0386434207378409,0.99925306406019,439.5217195080858,49.08647576600873)" fill="none" stroke="#2c2891"></use><use xlink:href="#bbburst-shape-10" width="18.25751535376871" opacity="0.5294854710136598" transform="matrix(0.9353526219512901,-0.3537166558261669,0.3537166558261669,0.9353526219512901,55.02650463041485,-53.52822266411545)" fill="none" stroke="#2c2891" filter="url(#bbburst-blur-2)"></use><use xlink:href="#bbburst-shape-3" width="23.29045997983748" opacity="0.40888651833113365" transform="matrix(0.9994839306124252,0.03212277147969443,-0.03212277147969443,0.9994839306124252,640.8577375653985,-115.42185393093212)" fill="#ffa6d5" filter="url(#bbburst-blur-2)"></use><use xlink:href="#bbburst-shape-10" width="6.560875298719419" opacity="0.8983264445038799" transform="matrix(0.9922207166753472,-0.12449116193634162,0.12449116193634162,0.9922207166753472,301.2861050905754,6.397834842198847)" fill="none" stroke="#ffbd9b"></use><use xlink:href="#bbburst-shape-8" width="33.32049594435074" opacity="0.29458045704600755" transform="matrix(1.2389028455397355,0.16619187499257074,-0.16619187499257074,1.2389028455397355,757.2289551379716,-159.99040770531553)" fill="none" stroke="#2c2891" filter="url(#bbburst-blur-3)"></use><use xlink:href="#bbburst-shape-3" width="26.686918111598246" opacity="0.29879416482285803" transform="matrix(1.2077528582966395,-0.322231335031678,0.322231335031678,1.2077528582966395,129.17585806845358,210.65909962686516)" fill="#ffbd9b" filter="url(#bbburst-blur-3)"></use><use xlink:href="#bbburst-shape-1" width="8.041507315990303" opacity="0.8371203095301445" transform="matrix(0.8937264723195855,0.44861229661611945,-0.44861229661611945,0.8937264723195855,614.6471549478347,102.89864551815322)" fill="#00a19d"></use><use xlink:href="#bbburst-shape-14" width="9.513012688127395" opacity="0.7907892099106957" transform="matrix(0.9244356846252602,-0.38133799311296857,0.38133799311296857,0.9244356846252602,177.91580716045922,-35.903278583594556)" fill="none" stroke="#00a19d"></use><use xlink:href="#bbburst-shape-6" width="16.97929770269569" opacity="0.6248489534351411" transform="matrix(0.8438685015718953,-0.5365500461791091,0.5365500461791091,0.8438685015718953,183.14738479927257,-101.73803910419383)" fill="#00a19d" filter="url(#bbburst-blur-1)"></use><use xlink:href="#bbburst-shape-3" width="19.106634599350777" opacity="0.6660978588505885" transform="matrix(0.980672983755062,0.1956540286652541,-0.1956540286652541,0.980672983755062,397.6764936207809,-126.49780451474356)" fill="#ffa6d5" filter="url(#bbburst-blur-1)"></use><use xlink:href="#bbburst-shape-4" width="6.272128331000316" opacity="0.8536449334758356" transform="matrix(0.9999552346961392,-0.009461955600676066,0.009461955600676066,0.9999552346961392,409.04711497315867,63.94803350058402)" fill="#00a19d"></use><use xlink:href="#bbburst-shape-10" width="24.623953239574877" opacity="0.34124118409754334" transform="matrix(0.884999787506793,-0.46559142615917154,0.46559142615917154,0.884999787506793,-72.85333382520146,160.61618993732878)" fill="none" stroke="#00a19d" filter="url(#bbburst-blur-2)"></use><use xlink:href="#bbburst-shape-8" width="14.22491625613107" opacity="0.6946011903887686" transform="matrix(0.8145509013057534,-0.5800920868120724,0.5800920868120724,0.8145509013057534,69.33703983973032,-23.03032479002286)" fill="none" stroke="#2c2891" filter="url(#bbburst-blur-1)"></use><use xlink:href="#bbburst-shape-6" width="6.600678499536069" opacity="0.9308054018886159" transform="matrix(0.9348430645282351,0.3550611844505931,-0.3550611844505931,0.9348430645282351,508.13016173977337,20.37943159563281)" fill="#00a19d"></use><use xlink:href="#bbburst-shape-8" width="21.617575266338406" opacity="0.5117958997549614" transform="matrix(0.9832406709738223,0.1823123225208539,-0.1823123225208539,0.9832406709738223,472.2547684029862,224.1992225801818)" fill="none" stroke="#00a19d" filter="url(#bbburst-blur-2)"></use><use xlink:href="#bbburst-shape-3" width="23.38525740696069" opacity="0.45491501312371097" transform="matrix(0.9330462986584345,-0.3597563127448849,0.3597563127448849,0.9330462986584345,428.89936691474475,-131.41677342372714)" fill="#ff5c58" filter="url(#bbburst-blur-2)"></use><use xlink:href="#bbburst-shape-6" width="27.1207335971453" opacity="0.41149014645983273" transform="matrix(0.8755867265117663,-0.4830609530446541,0.4830609530446541,0.8755867265117663,271.85499729673467,309.71878108754794)" fill="#ff5c58" filter="url(#bbburst-blur-2)"></use><use xlink:href="#bbburst-shape-8" width="7.942687144487935" opacity="0.900609240476492" transform="matrix(0.8962536267704228,-0.4435419219204243,0.4435419219204243,0.8962536267704228,196.95962295883112,4.355397641450793)" fill="none" stroke="#00a19d"></use><use xlink:href="#bbburst-shape-6" width="22.70485717109059" opacity="0.5708249284288069" transform="matrix(0.8257879034452135,0.5639807962365019,-0.5639807962365019,0.8257879034452135,745.7219079141247,-79.99110760188222)" fill="#00a19d" filter="url(#bbburst-blur-1)"></use><use xlink:href="#bbburst-shape-3" width="10.217353474101339" opacity="0.8012648235190429" transform="matrix(0.9999252980351677,-0.0122228617467848,0.0122228617467848,0.9999252980351677,479.3869419624152,-1.0599615366426747)" fill="#00a19d"></use><use xlink:href="#bbburst-shape-8" width="38.21883265449296" opacity="0.16215536658956176" transform="matrix(1.24966358575456,0.02899866271150953,-0.02899866271150953,1.24966358575456,23.23915862154731,-3.951834748579927)" fill="none" stroke="#ffbd9b" filter="url(#bbburst-blur-3)"></use><use xlink:href="#bbburst-shape-3" width="13.218968578546033" opacity="0.7934745274987899" transform="matrix(0.9390444463409555,0.34379576465717,-0.34379576465717,0.9390444463409555,538.4606313972915,-70.56487120257975)" fill="#ffbd9b"></use><use xlink:href="#bbburst-shape-6" width="10.480621818212565" opacity="0.8092618726028317" transform="matrix(0.8560514287910787,-0.5168906569718132,0.5168906569718132,0.8560514287910787,236.863638807468,-10.79619650652404)" fill="#00a19d"></use><use xlink:href="#bbburst-shape-6" width="31.971526969624357" opacity="0.43530543899775165" transform="matrix(0.9951554692160445,-0.09831374313591337,0.09831374313591337,0.9951554692160445,292.5234453532922,252.1940800627856)" fill="#ffbd9b" filter="url(#bbburst-blur-2)"></use><use xlink:href="#bbburst-shape-8" width="24.766512877472064" opacity="0.505567074431012" transform="matrix(0.8772275012104472,-0.4800749015727387,0.4800749015727387,0.8772275012104472,17.576874206332377,186.480053476921)" fill="none" stroke="#ffa6d5" filter="url(#bbburst-blur-2)"></use><use xlink:href="#bbburst-shape-6" width="45.521489633365206" opacity="0.12485063153141152" transform="matrix(1.0664750533218732,-0.6520206750112358,0.6520206750112358,1.0664750533218732,-184.43873552253066,-267.63447354449977)" fill="#2c2891" filter="url(#bbburst-blur-3)"></use><use xlink:href="#bbburst-shape-1" width="7.633350839953419" opacity="0.9880113690382908" transform="matrix(0.7980217716157919,-0.6026286186592809,0.6026286186592809,0.7980217716157919,160.5257796796327,80.30861140666235)" fill="#ffa6d5"></use><use xlink:href="#bbburst-shape-10" width="11.324078622945436" opacity="0.8526970087586314" transform="matrix(0.813268224287214,0.5818889888670533,-0.5818889888670533,0.813268224287214,692.3915876703173,55.05774458655458)" fill="none" stroke="#2c2891"></use><use xlink:href="#bbburst-shape-12" width="6.292136038131199" opacity="0.943804687572025" transform="matrix(0.7541541949297911,0.6566973810438097,-0.6566973810438097,0.7541541949297911,641.8531901777799,78.98126245322317)" fill="none" stroke="#ffa6d5"></use><use xlink:href="#bbburst-shape-14" width="23.197267856454424" opacity="0.47176549138992885" transform="matrix(0.9017217481074962,0.43231688492350295,-0.43231688492350295,0.9017217481074962,717.4936883241339,214.5106067059283)" fill="none" stroke="#00a19d" filter="url(#bbburst-blur-2)"></use><use xlink:href="#bbburst-shape-3" width="22.44288470090608" opacity="0.6683908724738628" transform="matrix(0.9862525384553094,0.1652450616220001,-0.1652450616220001,0.9862525384553094,594.8509217142612,-48.2784906588966)" fill="#ffa6d5" filter="url(#bbburst-blur-1)"></use><use xlink:href="#bbburst-shape-6" width="28.38751217560013" opacity="0.2521573000654155" transform="matrix(1.2198460377294138,-0.27290226132417783,0.27290226132417783,1.2198460377294138,213.6272366835916,247.09129398070667)" fill="#ffbd9b" filter="url(#bbburst-blur-3)"></use><use xlink:href="#bbburst-shape-3" width="8.176846393149914" opacity="0.8293363156320481" transform="matrix(0.8693122819709228,-0.4942632460688401,0.4942632460688401,0.8693122819709228,203.8317827819808,130.93918100262505)" fill="#ffa6d5"></use><use xlink:href="#bbburst-shape-6" width="22.075267664961657" opacity="0.16885645607097255" transform="matrix(1.2479287069368137,-0.07193012166687972,0.07193012166687972,1.2479287069368137,327.6904694273882,-471.20568288010173)" fill="#2c2891" filter="url(#bbburst-blur-3)"></use><use xlink:href="#bbburst-shape-6" width="21.238588591549103" opacity="0.5528606223143908" transform="matrix(0.988580227821615,-0.15069549814166255,0.15069549814166255,0.988580227821615,130.81952449328406,-27.332332214567487)" fill="#ff5c58" filter="url(#bbburst-blur-2)"></use><use xlink:href="#bbburst-shape-10" width="8.368505045954581" opacity="0.8347448597150078" transform="matrix(0.9530949664628443,-0.3026714140833088,0.3026714140833088,0.9530949664628443,204.45968491668415,-3.6815606726790975)" fill="none" stroke="#ff5c58"></use><use xlink:href="#bbburst-shape-1" width="8.33751885583808" opacity="0.8577154395486295" transform="matrix(0.9574704049015436,0.2885314952265596,-0.2885314952265596,0.9574704049015436,456.3815301079665,48.53894230216895)" fill="#00a19d"></use><use xlink:href="#bbburst-shape-8" width="7.262825036911569" opacity="0.8026194619827457" transform="matrix(0.999998793932236,-0.001553104656296615,0.001553104656296615,0.999998793932236,365.27344228077243,83.43605796808816)" fill="none" stroke="#2c2891"></use><use xlink:href="#bbburst-shape-10" width="8.158902951300675" opacity="0.8505452086455518" transform="matrix(0.7866798156529584,0.6173612132651576,-0.6173612132651576,0.7866798156529584,596.35017554639,130.53632397841443)" fill="none" stroke="#ffa6d5"></use><use xlink:href="#bbburst-shape-3" width="13.291061351914333" opacity="0.7640279788705676" transform="matrix(0.8808869260433094,-0.47332676189496103,0.47332676189496103,0.8808869260433094,152.08130220475317,-41.37852091112791)" fill="#00a19d" filter="url(#bbburst-blur-1)"></use><use xlink:href="#bbburst-shape-3" width="30.487585176394038" opacity="0.36307374126943626" transform="matrix(0.8998399267182154,0.4362202497406059,-0.4362202497406059,0.8998399267182154,825.3436005450699,143.341723704422)" fill="#00a19d" filter="url(#bbburst-blur-2)"></use><use xlink:href="#bbburst-shape-6" width="28.09875857919948" opacity="0.10800838046807804" transform="matrix(1.3269041973648952,1.1409755698591548,-1.1409755698591548,1.3269041973648952,1135.7415849859694,-415.7124000060626)" fill="#ff5c58" filter="url(#bbburst-blur-4)"></use><use xlink:href="#bbburst-shape-4" width="41.00264075323291" opacity="0.34097381248962066" transform="matrix(0.9101286801383494,-0.41432569989034745,0.41432569989034745,0.9101286801383494,-18.228349760621313,226.85239259392824)" fill="#ff5c58" filter="url(#bbburst-blur-2)"></use><use xlink:href="#bbburst-shape-4" width="30.304460694085833" opacity="0.24244423392076186" transform="matrix(0.9099203323179443,-0.8570560009908348,0.8570560009908348,0.9099203323179443,344.3414738873981,-111.12978937356172)" fill="#ffa6d5" filter="url(#bbburst-blur-3)"></use><use xlink:href="#bbburst-shape-4" width="15.93791556475038" opacity="0.5610283795351239" transform="matrix(0.8549416716838237,0.5187241444336951,-0.5187241444336951,0.8549416716838237,651.7193355895537,244.72871412671395)" fill="#ffa6d5" filter="url(#bbburst-blur-1)"></use><use xlink:href="#bbburst-shape-3" width="8.994814357350773" opacity="0.8591645419380577" transform="matrix(0.9996039087296937,0.02814295031296704,-0.02814295031296704,0.9996039087296937,358.047137912881,-40.549385769117805)" fill="#2c2891"></use><use xlink:href="#bbburst-shape-8" width="10.70872830157965" opacity="0.7325957873721518" transform="matrix(0.7335062731782538,-0.6796826812624763,0.6796826812624763,0.7335062731782538,4.242610146713105,100.74386155802807)" fill="none" stroke="#2c2891" filter="url(#bbburst-blur-1)"></use><use xlink:href="#bbburst-shape-1" width="11.854311147647834" opacity="0.7943370022058354" transform="matrix(0.9034408793708781,-0.42871269806430323,0.42871269806430323,0.9034408793708781,309.2863335331549,75.06942301854224)" fill="#00a19d"></use><use xlink:href="#bbburst-shape-4" width="6.190815630355887" opacity="0.9716572364464549" transform="matrix(0.9227318484196694,-0.3854425195953612,0.3854425195953612,0.9227318484196694,230.51332753976658,29.361630114892876)" fill="#00a19d"></use><use xlink:href="#bbburst-shape-4" width="13.501523204901222" opacity="0.7215809263154972" transform="matrix(0.7859176654019319,0.6183311598239063,-0.6183311598239063,0.7859176654019319,645.0344940585758,-43.78393286847165)" fill="#2c2891" filter="url(#bbburst-blur-1)"></use><use xlink:href="#bbburst-shape-14" width="6.387033793949456" opacity="0.9230580703185992" transform="matrix(0.9020554973897644,0.43162006397861613,-0.43162006397861613,0.9020554973897644,566.8559192504038,3.30563066161136)" fill="none" stroke="#2c2891"></use><use xlink:href="#bbburst-shape-10" width="15.87397915905062" opacity="0.6834786625711377" transform="matrix(0.9921761525809134,-0.12484583393023575,0.12484583393023575,0.9921761525809134,381.58191721656783,-132.75774531648375)" fill="none" stroke="#ffa6d5" filter="url(#bbburst-blur-1)"></use><use xlink:href="#bbburst-shape-4" width="9.636413905975544" opacity="0.8970226417674303" transform="matrix(0.7715311077967497,-0.6361915982641709,0.6361915982641709,0.7715311077967497,178.50178207618114,66.15409155215963)" fill="#ffa6d5"></use><use xlink:href="#bbburst-shape-6" width="14.224438817699074" opacity="0.6568559606148583" transform="matrix(0.9802028535324655,0.1979958735095559,-0.1979958735095559,0.9802028535324655,527.1964057241087,150.81014825631587)" fill="#ff5c58" filter="url(#bbburst-blur-1)"></use><use xlink:href="#bbburst-shape-10" width="11.579063267201652" opacity="0.8509131500845735" transform="matrix(0.9540700800217184,0.29958351491253965,-0.29958351491253965,0.9540700800217184,580.1563406642335,29.489519509569334)" fill="none" stroke="#ffbd9b"></use><use xlink:href="#bbburst-shape-4" width="27.69200687370182" opacity="0.44762763944058315" transform="matrix(0.8348229775268368,0.5505184794293708,-0.5505184794293708,0.8348229775268368,498.7674879018167,281.4380270353253)" fill="#ffbd9b" filter="url(#bbburst-blur-2)"></use><use xlink:href="#bbburst-shape-14" width="9.552326823881769" opacity="0.8761194936217587" transform="matrix(0.89119117383778,0.4536279220612855,-0.4536279220612855,0.89119117383778,625.9053710349442,68.46716433430998)" fill="none" stroke="#2c2891"></use><use xlink:href="#bbburst-shape-4" width="22.886484818276084" opacity="0.11219914364490668" transform="matrix(1.1302025061967904,0.5339871674361603,-0.5339871674361603,1.1302025061967904,444.1694262006714,-425.75782287348204)" fill="#00a19d" filter="url(#bbburst-blur-3)"></use><use xlink:href="#bbburst-shape-3" width="6.718531784184222" opacity="0.8829567623834506" transform="matrix(0.980799027552535,0.19502119769912624,-0.19502119769912624,0.980799027552535,495.200677627381,55.53134020510237)" fill="#2c2891"></use><use xlink:href="#bbburst-shape-6" width="6.157525622784216" opacity="0.9055660271936796" transform="matrix(0.8068005827739307,0.5908238482285949,-0.5908238482285949,0.8068005827739307,640.6649195171342,117.40537464360443)" fill="#2c2891"></use><use xlink:href="#bbburst-shape-4" width="4.701152952890231" opacity="0.9396070343900126" transform="matrix(0.9874874214646171,-0.15769778834581574,0.15769778834581574,0.9874874214646171,321.25754535752054,29.055845522987056)" fill="#ffa6d5"></use><use xlink:href="#bbburst-shape-1" width="6.507050310456019" opacity="0.83395162758146" transform="matrix(0.9999971478107897,0.0023883823574844514,-0.0023883823574844514,0.9999971478107897,359.35408842116505,64.13283327335608)" fill="#ff5c58"></use><use xlink:href="#bbburst-shape-10" width="31.477715764737773" opacity="0.40523300181703525" transform="matrix(0.9455467865792697,-0.32548621228804286,0.32548621228804286,0.9455467865792697,20.58775408869019,-102.4040629959282)" fill="none" stroke="#ffa6d5" filter="url(#bbburst-blur-2)"></use><use xlink:href="#bbburst-shape-14" width="45.04346381053125" opacity="-0.09795451029157287" transform="matrix(1.266096196403151,-1.2080978525986519,1.2080978525986519,1.266096196403151,239.14179665371387,268.75284287164385)" fill="none" stroke="#2c2891" filter="url(#bbburst-blur-4)"></use><use xlink:href="#bbburst-shape-12" width="32.412281226344525" opacity="0.3693975940794709" transform="matrix(0.9999276774426069,0.012026632289789108,-0.012026632289789108,0.9999276774426069,395.763788301455,283.4561002605039)" fill="none" stroke="#ffa6d5" filter="url(#bbburst-blur-2)"></use><use xlink:href="#bbburst-shape-6" width="6.866305980268093" opacity="0.9387076040820098" transform="matrix(0.7426744341644981,0.6696526598457163,-0.6696526598457163,0.7426744341644981,679.6094352091303,77.04510714557608)" fill="#ff5c58"></use><use xlink:href="#bbburst-shape-6" width="9.261719389418534" opacity="0.8649420892045877" transform="matrix(0.9592100673478254,-0.2826942636463999,0.2826942636463999,0.9592100673478254,316.8823843043935,-32.477002408289536)" fill="#ffa6d5"></use><use xlink:href="#bbburst-shape-14" width="15.855562493309536" opacity="0.6870056036738716" transform="matrix(0.7324301807272792,0.6808421479019974,-0.6808421479019974,0.7324301807272792,749.4938672877464,215.45569875126648)" fill="none" stroke="#00a19d" filter="url(#bbburst-blur-1)"></use><use xlink:href="#bbburst-shape-4" width="34.31874357107903" opacity="0.07195875460883194" transform="matrix(1.6815737233550627,-0.4845717830433294,0.4845717830433294,1.6815737233550627,-189.6171287725321,-463.64594198288034)" fill="#ff5c58" filter="url(#bbburst-blur-4)"></use><use xlink:href="#bbburst-shape-3" width="28.837119713118966" opacity="0.1399715813720549" transform="matrix(1.084207120632463,0.6220891572514855,-0.6220891572514855,1.084207120632463,999.8368341460155,-166.2967865849709)" fill="#ff5c58" filter="url(#bbburst-blur-3)"></use><use xlink:href="#bbburst-shape-6" width="29.551627284230726" opacity="0.27084238220130497" transform="matrix(0.971881362042482,0.7860958072108324,-0.7860958072108324,0.971881362042482,504.8701308416662,263.3698329677608)" fill="#2c2891" filter="url(#bbburst-blur-3)"></use><use xlink:href="#bbburst-shape-6" width="9.457150923233083" opacity="0.8744196844451853" transform="matrix(0.9999900736131885,-0.004455634083923706,0.004455634083923706,0.9999900736131885,387.34577061054074,-56.151069604326324)" fill="#ffbd9b"></use><use xlink:href="#bbburst-shape-4" width="26.997709546503888" opacity="0.22363526770590614" transform="matrix(1.1958086155883862,-0.36406284469111505,0.36406284469111505,1.1958086155883862,392.1377634779375,240.26228735953936)" fill="#2c2891" filter="url(#bbburst-blur-3)"></use><use xlink:href="#bbburst-shape-4" width="5.980675219104208" opacity="0.9092560822686783" transform="matrix(0.8570506974333737,-0.5152320855973235,0.5152320855973235,0.8570506974333737,158.4134133534864,34.58276500768011)" fill="#ff5c58"></use><use xlink:href="#bbburst-shape-8" width="18.621239749807486" opacity="0.6457819379726379" transform="matrix(0.851652756157056,-0.5241064614466131,0.5241064614466131,0.851652756157056,313.7404752214396,154.57793450264802)" fill="none" stroke="#00a19d" filter="url(#bbburst-blur-1)"></use><use xlink:href="#bbburst-shape-6" width="28.859764027255082" opacity="0.1837003486151383" transform="matrix(1.0753198035002864,-0.6373282672219281,0.6373282672219281,1.0753198035002864,-237.73268595360418,-26.992693430798738)" fill="#00a19d" filter="url(#bbburst-blur-3)"></use><use xlink:href="#bbburst-shape-4" width="24.34670917083709" opacity="0.48990708694442353" transform="matrix(0.7785638328078722,0.6275654214848964,-0.6275654214848964,0.7785638328078722,430.8966851550558,172.17236370336224)" fill="#ffbd9b" filter="url(#bbburst-blur-2)"></use><use xlink:href="#bbburst-shape-8" width="22.981379906038978" opacity="0.3087753557673545" transform="matrix(1.2188684796913327,-0.27723569253423946,0.27723569253423946,1.2188684796913327,239.3341136329896,-393.34974780041006)" fill="none" stroke="#ffbd9b" filter="url(#bbburst-blur-3)"></use><use xlink:href="#bbburst-shape-3" width="28.094707612188635" opacity="0.13374271424491857" transform="matrix(1.1050054708925834,0.5843482773975293,-0.5843482773975293,1.1050054708925834,480.41020221862476,314.41592011617956)" fill="#00a19d" filter="url(#bbburst-blur-3)"></use><use xlink:href="#bbburst-shape-4" width="7.730520116377534" opacity="0.8878121660516496" transform="matrix(0.7437333986367277,0.6684763509296812,-0.6684763509296812,0.7437333986367277,638.378625577863,143.12269611516803)" fill="#00a19d"></use><use xlink:href="#bbburst-shape-6" width="19.563199693717795" opacity="0.6008319775088236" transform="matrix(0.9183587042505276,-0.39574902441735993,0.39574902441735993,0.9183587042505276,66.08618351789204,103.60517975463387)" fill="#2c2891" filter="url(#bbburst-blur-1)"></use><use xlink:href="#bbburst-shape-8" width="8.729573015196955" opacity="0.8523516447624911" transform="matrix(0.9815506590366787,0.19120225873315846,-0.19120225873315846,0.9815506590366787,407.5728580816221,21.981290686257296)" fill="none" stroke="#ffa6d5"></use><use xlink:href="#bbburst-shape-8" width="7.4775508562289374" opacity="0.8861750681450065" transform="matrix(0.8774666116675011,-0.4796377230877017,0.4796377230877017,0.8774666116675011,156.54756153553163,33.80338078908005)" fill="none" stroke="#00a19d"></use><use xlink:href="#bbburst-shape-1" width="13.51585830727926" opacity="0.748159481482663" transform="matrix(0.8679668185527133,0.4966221923066681,-0.4966221923066681,0.8679668185527133,562.5022191243946,158.68248095273424)" fill="#ffa6d5" filter="url(#bbburst-blur-1)"></use><use xlink:href="#bbburst-shape-4" width="16.02875876065788" opacity="0.6724562290091868" transform="matrix(0.8614123729685441,-0.5079062154538985,0.5079062154538985,0.8614123729685441,305.06111285530494,-32.5285540402528)" fill="#ffa6d5" filter="url(#bbburst-blur-1)"></use><use xlink:href="#bbburst-shape-1" width="8.408794256599379" opacity="0.8006076512899469" transform="matrix(0.991009570933736,0.1337909949052348,-0.1337909949052348,0.991009570933736,374.5745149892607,52.64004411130827)" fill="#2c2891"></use><use xlink:href="#bbburst-shape-10" width="6.4857574064921035" opacity="0.9233356335220398" transform="matrix(0.9993360024165774,0.03643561820601406,-0.03643561820601406,0.9993360024165774,439.17147430099544,20.524559592599473)" fill="none" stroke="#ffa6d5"></use><use xlink:href="#bbburst-shape-8" width="25.962274729977825" opacity="0.509480866798544" transform="matrix(0.9849945429985695,0.1725854868262081,-0.1725854868262081,0.9849945429985695,563.6056475097937,-189.10503678963406)" fill="none" stroke="#2c2891" filter="url(#bbburst-blur-2)"></use><use xlink:href="#bbburst-shape-10" width="28.438504758011078" opacity="0.4335054909976205" transform="matrix(0.9702670025893327,0.24203707089268736,-0.24203707089268736,0.9702670025893327,734.4458413948788,-33.61639595970831)" fill="none" stroke="#00a19d" filter="url(#bbburst-blur-2)"></use><use xlink:href="#bbburst-shape-3" width="20.631702179136454" opacity="0.5889078743822515" transform="matrix(0.8667228027339884,-0.49879011940989754,0.49879011940989754,0.8667228027339884,70.50497287046798,198.45330827042574)" fill="#ffa6d5" filter="url(#bbburst-blur-1)"></use><use xlink:href="#bbburst-shape-4" width="5.972365817736881" opacity="0.8847583172950905" transform="matrix(0.8961786025496697,0.4436934891703067,-0.4436934891703067,0.8961786025496697,608.6997534170995,79.45203153453832)" fill="#ffa6d5"></use><use xlink:href="#bbburst-shape-3" width="24.50261816718715" opacity="0.37324676357369047" transform="matrix(0.881152985502384,0.47283127660956986,-0.47283127660956986,0.881152985502384,303.4090503663832,-21.5893461907786)" fill="#00a19d" filter="url(#bbburst-blur-2)"></use><use xlink:href="#bbburst-shape-3" width="16.53597042273689" opacity="0.6229987686636973" transform="matrix(0.9772222555686373,-0.21221843280296096,0.21221843280296096,0.9772222555686373,169.0396343877387,-87.89422512580825)" fill="#00a19d" filter="url(#bbburst-blur-1)"></use><use xlink:href="#bbburst-shape-8" width="17.865285913565067" opacity="0.49258161681383805" transform="matrix(0.8995779124339127,-0.4367603226725656,0.4367603226725656,0.8995779124339127,443.9312974546174,71.6130617860843)" fill="none" stroke="#ffa6d5" filter="url(#bbburst-blur-2)"></use><use xlink:href="#bbburst-shape-3" width="21.97576829577159" opacity="0.4997702284634681" transform="matrix(0.9694088040721481,0.24545176835257765,-0.24545176835257765,0.9694088040721481,697.711571918957,89.89683389025362)" fill="#ff5c58" filter="url(#bbburst-blur-2)"></use><use xlink:href="#bbburst-shape-6" width="22.95514826860001" opacity="0.5661085523000009" transform="matrix(0.9923850812826918,-0.12317406564510795,0.12317406564510795,0.9923850812826918,216.86598710562583,-147.6027411706444)" fill="#2c2891" filter="url(#bbburst-blur-1)"></use><use xlink:href="#bbburst-shape-6" width="12.909406187445944" opacity="0.7723441627483054" transform="matrix(0.9597632340662676,-0.28081049577011663,0.28081049577011663,0.9597632340662676,377.0398150167726,-19.018068020613953)" fill="#ff5c58" filter="url(#bbburst-blur-1)"></use><use xlink:href="#bbburst-shape-10" width="40.20943416776187" opacity="0.05170557607437609" transform="matrix(1.7499782503305674,-0.008724870770733124,0.008724870770733124,1.7499782503305674,121.84557529064602,53.382551793376706)" fill="none" stroke="#2c2891" filter="url(#bbburst-blur-4)"></use><use xlink:href="#bbburst-shape-12" width="12.117233737273542" opacity="0.7331524658188591" transform="matrix(0.9894058754286572,-0.1451758026230696,0.1451758026230696,0.9894058754286572,409.2410798810082,-90.01144466224758)" fill="none" stroke="#00a19d" filter="url(#bbburst-blur-1)"></use><use xlink:href="#bbburst-shape-4" width="11.271402568017681" opacity="0.8055492675830412" transform="matrix(0.7233328472043903,0.6904995236458822,-0.6904995236458822,0.7233328472043903,584.6367221014482,104.76357962364011)" fill="#ffa6d5"></use><use xlink:href="#bbburst-shape-10" width="35.563886459946" opacity="0.1915731730656336" transform="matrix(1.1326230762782172,-0.5288335911059997,0.5288335911059997,1.1326230762782172,390.9378362994071,-331.37593832535765)" fill="none" stroke="#2c2891" filter="url(#bbburst-blur-3)"></use><use xlink:href="#bbburst-shape-8" width="12.97640033155283" opacity="0.6717906533815933" transform="matrix(0.9992093708710371,0.03975717750930201,-0.03975717750930201,0.9992093708710371,355.7107573219764,137.6406849589343)" fill="none" stroke="#2c2891" filter="url(#bbburst-blur-1)"></use><use xlink:href="#bbburst-shape-10" width="9.992133696715433" opacity="0.8189964461691238" transform="matrix(0.9434501733753226,0.33151435920344974,-0.33151435920344974,0.9434501733753226,509.5105746373564,-58.38669088505628)" fill="none" stroke="#ff5c58"></use><use xlink:href="#bbburst-shape-4" width="8.44728723769997" opacity="0.8450810052766299" transform="matrix(0.8914059284041653,-0.45320577093182307,0.45320577093182307,0.8914059284041653,180.0792663489336,-15.003416652570479)" fill="#2c2891"></use><use xlink:href="#bbburst-shape-6" width="16.64981870759236" opacity="0.713045941141021" transform="matrix(0.9859916243757597,-0.16679483403526257,0.16679483403526257,0.9859916243757597,442.6724771288955,60.33003900941287)" fill="#ffa6d5" filter="url(#bbburst-blur-1)"></use><use xlink:href="#bbburst-shape-4" width="26.743479834914773" opacity="0.4158251338572567" transform="matrix(0.9202655603459129,-0.39129438846119813,0.39129438846119813,0.9202655603459129,150.74973569241857,-213.12180948350033)" fill="#ffbd9b" filter="url(#bbburst-blur-2)"></use><use xlink:href="#bbburst-shape-3" width="45.926852027643214" opacity="-0.0920651604524334" transform="matrix(1.7429176988595623,0.15728285031143233,-0.15728285031143233,1.7429176988595623,74.72970693107693,46.3247195759933)" fill="#ff5c58" filter="url(#bbburst-blur-4)"></use><use xlink:href="#bbburst-shape-12" width="6.541236503189495" opacity="0.972000134349708" transform="matrix(0.916788896559724,-0.3993721561962022,0.3993721561962022,0.916788896559724,229.68792655445273,44.65969136921228)" fill="none" stroke="#2c2891"></use><use xlink:href="#bbburst-shape-3" width="15.008394163171412" opacity="0.6588442889319158" transform="matrix(0.9638753913332571,0.2663535807571593,-0.2663535807571593,0.9638753913332571,355.3575896612406,-41.066454082940595)" fill="#ff5c58" filter="url(#bbburst-blur-1)"></use><use xlink:href="#bbburst-shape-8" width="35.53034582804866" opacity="0.1915948757895397" transform="matrix(1.1965418725306858,0.3616456100670383,-0.3616456100670383,1.1965418725306858,200.46259550318507,82.43402900131116)" fill="none" stroke="#00a19d" filter="url(#bbburst-blur-3)"></use><use xlink:href="#bbburst-shape-4" width="7.070957419745522" opacity="0.9083191555938507" transform="matrix(0.9999386935931831,-0.01107289732447438,0.01107289732447438,0.9999386935931831,361.1915257262125,27.469539651166826)" fill="#ffa6d5"></use><use xlink:href="#bbburst-shape-14" width="9.254510843869685" opacity="0.793667642989065" transform="matrix(0.8969799058841654,-0.44207131601138033,0.44207131601138033,0.8969799058841654,156.7078372440425,112.09383889875517)" fill="none" stroke="#2c2891"></use><use xlink:href="#bbburst-shape-6" width="35.86225884108641" opacity="0.1450866405479151" transform="matrix(0.9913006785042776,0.7614610724107693,-0.7614610724107693,0.9913006785042776,405.1884498982473,251.91869036247658)" fill="#ff5c58" filter="url(#bbburst-blur-3)"></use><use xlink:href="#bbburst-shape-14" width="30.270142420995953" opacity="0.24736935545792116" transform="matrix(0.9966510197611942,-0.7544446598717311,0.7544446598717311,0.9966510197611942,148.66972208778583,345.0884301644784)" fill="none" stroke="#ffbd9b" filter="url(#bbburst-blur-3)"></use><use xlink:href="#bbburst-shape-10" width="37.12043575167158" opacity="0.03412673646031261" transform="matrix(1.6391401947229343,0.6129595598762299,-0.6129595598762299,1.6391401947229343,249.45442736459574,-31.521415925532665)" fill="none" stroke="#ffa6d5" filter="url(#bbburst-blur-4)"></use><use xlink:href="#bbburst-shape-8" width="7.557494373133984" opacity="0.8962172348075881" transform="matrix(0.9996681358669678,0.025760786716665336,-0.025760786716665336,0.9996681358669678,363.48467825903884,18.15923583190073)" fill="none" stroke="#ffa6d5"></use><use xlink:href="#bbburst-shape-4" width="26.85242812900178" opacity="0.03177901801649885" transform="matrix(1.4090613012285524,-1.0378083876034625,1.0378083876034625,1.4090613012285524,330.51250913802187,88.99123543006056)" fill="#ff5c58" filter="url(#bbburst-blur-4)"></use><use xlink:href="#bbburst-shape-14" width="15.927682419605125" opacity="0.5834013934847552" transform="matrix(0.9978727825528791,-0.0651913325540629,0.0651913325540629,0.9978727825528791,423.75433350815524,-176.95266304746596)" fill="none" stroke="#ffa6d5" filter="url(#bbburst-blur-1)"></use><use xlink:href="#bbburst-shape-14" width="18.385207012222036" opacity="0.6537555265823485" transform="matrix(0.7357184564514758,-0.6772874964419894,0.6772874964419894,0.7357184564514758,-32.88652088605616,98.46990895489358)" fill="none" stroke="#ffbd9b" filter="url(#bbburst-blur-1)"></use><use xlink:href="#bbburst-shape-10" width="8.806650474209507" opacity="0.8989341705735333" transform="matrix(0.9409948478588477,-0.3384208863281109,0.3384208863281109,0.9409948478588477,275.27969731472035,-17.91480728688657)" fill="none" stroke="#ffa6d5"></use><use xlink:href="#bbburst-shape-8" width="22.198795517868877" opacity="0.5610181114602901" transform="matrix(0.7958526355096298,0.6054903653670934,-0.6054903653670934,0.7958526355096298,830.6009689836029,63.99159791628608)" fill="none" stroke="#ffbd9b" filter="url(#bbburst-blur-1)"></use><use xlink:href="#bbburst-shape-1" width="16.699373856667606" opacity="0.7302881849176697" transform="matrix(0.8960536338884462,0.44394581335486255,-0.44394581335486255,0.8960536338884462,690.4094929478879,21.97716677433999)" fill="#ffa6d5" filter="url(#bbburst-blur-1)"></use><use xlink:href="#bbburst-shape-4" width="9.047590986121271" opacity="0.7715722848602677" transform="matrix(0.9033584323190246,-0.42888639842983395,0.42888639842983395,0.9033584323190246,223.13756913636092,143.3894180374205)" fill="#00a19d" filter="url(#bbburst-blur-1)"></use><use xlink:href="#bbburst-shape-3" width="27.74193159946408" opacity="0.4934655170542972" transform="matrix(0.8959709249050989,-0.44411271286093773,0.44411271286093773,0.8959709249050989,35.7678401554999,-99.34942193197202)" fill="#ffbd9b" filter="url(#bbburst-blur-2)"></use><use xlink:href="#bbburst-shape-6" width="13.322611749880345" opacity="0.7795721027324183" transform="matrix(0.9117715546901928,-0.4106977380724526,0.4106977380724526,0.9117715546901928,287.8194537975709,118.37137059714286)" fill="#ffa6d5"></use><use xlink:href="#bbburst-shape-6" width="31.55947481280419" opacity="0.23165072936488362" transform="matrix(1.091282314019983,-0.60959241391867,0.60959241391867,1.091282314019983,353.4913076260421,244.2470104727903)" fill="#00a19d" filter="url(#bbburst-blur-3)"></use><use xlink:href="#bbburst-shape-8" width="5.722958096747119" opacity="0.910110271452766" transform="matrix(0.9908982889384103,0.134612707345669,-0.134612707345669,0.9908982889384103,490.1626481507782,-6.906967335184618)" fill="none" stroke="#ff5c58"></use><use xlink:href="#bbburst-shape-12" width="11.116293902575748" opacity="0.7449974165396969" transform="matrix(0.999982835424861,0.00585908317531931,-0.00585908317531931,0.999982835424861,368.33456960990753,-111.21401657764073)" fill="none" stroke="#00a19d" filter="url(#bbburst-blur-1)"></use><use xlink:href="#bbburst-shape-14" width="38.30463108228413" opacity="0.3467650286148013" transform="matrix(0.9947047151993264,-0.10277416776713376,0.10277416776713376,0.9947047151993264,564.8897227734726,193.25366660243083)" fill="none" stroke="#00a19d" filter="url(#bbburst-blur-2)"></use><use xlink:href="#bbburst-shape-8" width="33.248745846479764" opacity="0.13052838436180236" transform="matrix(1.216164661411576,-0.2888659141083741,0.2888659141083741,1.216164661411576,553.0647628254735,182.27553239476435)" fill="none" stroke="#00a19d" filter="url(#bbburst-blur-3)"></use></svg>