<svg xmlns="http://www.w3.org/2000/svg" version="1.1" xmlns:xlink="http://www.w3.org/1999/xlink" xmlns:svgjs="http://svgjs.dev/svgjs" viewBox="0 0 800 800"><defs><linearGradient x1="50%" y1="0%" x2="50%" y2="100%" id="ffflurry-grad" gradientTransform="rotate(270)"><stop stop-color="hsl(238, 82%, 13%)" stop-opacity="1" offset="0%"></stop><stop stop-color="hsl(1.4, 100%, 67%)" stop-opacity="1" offset="45%"></stop><stop stop-color="hsl(167, 52%, 78%)" stop-opacity="1" offset="100%"></stop></linearGradient></defs><rect width="100%" height="100%" fill="hsl(238, 82%, 13%)"></rect><g fill="url(#ffflurry-grad)"><rect width="92" height="3" x="694" y="214.5" rx="1.5" transform="rotate(45, 740, 216)" opacity="0.50"></rect><rect width="121" height="3" x="380.5" y="599.5" rx="1.5" transform="rotate(45, 441, 601)" opacity="0.63"></rect><rect width="328" height="3" x="-129" y="421.5" rx="1.5" transform="rotate(45, 35, 423)" opacity="0.18"></rect><rect width="239" height="3" x="616.5" y="302.5" rx="1.5" transform="rotate(45, 736, 304)" opacity="0.96"></rect><rect width="575" height="3" x="81.5" y="564.5" rx="1.5" transform="rotate(45, 369, 566)" opacity="0.95"></rect><rect width="165" height="3" x="259.5" y="480.5" rx="1.5" transform="rotate(45, 342, 482)" opacity="0.33"></rect><rect width="153" height="3" x="382.5" y="487.5" rx="1.5" transform="rotate(45, 459, 489)" opacity="0.61"></rect><rect width="237" height="3" x="-88.5" y="335.5" rx="1.5" transform="rotate(45, 30, 337)" opacity="0.54"></rect><rect width="329" height="3" x="442.5" y="529.5" rx="1.5" transform="rotate(45, 607, 531)" opacity="0.88"></rect><rect width="245" height="3" x="364.5" y="655.5" rx="1.5" transform="rotate(45, 487, 657)" opacity="0.35"></rect><rect width="353" height="3" x="-108.5" y="287.5" rx="1.5" transform="rotate(45, 68, 289)" opacity="0.71"></rect><rect width="119" height="3" x="349.5" y="717.5" rx="1.5" transform="rotate(45, 409, 719)" opacity="0.48"></rect><rect width="138" height="3" x="240" y="46.5" rx="1.5" transform="rotate(45, 309, 48)" opacity="0.88"></rect><rect width="453" height="3" x="-163.5" y="134.5" rx="1.5" transform="rotate(45, 63, 136)" opacity="0.46"></rect><rect width="564" height="3" x="100" y="319.5" rx="1.5" transform="rotate(45, 382, 321)" opacity="0.83"></rect><rect width="326" height="3" x="-7" y="428.5" rx="1.5" transform="rotate(45, 156, 430)" opacity="0.62"></rect><rect width="160" height="3" x="695" y="74.5" rx="1.5" transform="rotate(45, 775, 76)" opacity="0.75"></rect><rect width="207" height="3" x="78.5" y="354.5" rx="1.5" transform="rotate(45, 182, 356)" opacity="0.09"></rect><rect width="87" height="3" x="591.5" y="762.5" rx="1.5" transform="rotate(45, 635, 764)" opacity="0.14"></rect><rect width="246" height="3" x="629" y="128.5" rx="1.5" transform="rotate(45, 752, 130)" opacity="0.84"></rect><rect width="120" height="3" x="313" y="410.5" rx="1.5" transform="rotate(45, 373, 412)" opacity="0.95"></rect><rect width="119" height="3" x="222.5" y="548.5" rx="1.5" transform="rotate(45, 282, 550)" opacity="0.45"></rect><rect width="393" height="3" x="11.5" y="750.5" rx="1.5" transform="rotate(45, 208, 752)" opacity="0.30"></rect><rect width="340" height="3" x="-44" y="279.5" rx="1.5" transform="rotate(45, 126, 281)" opacity="0.83"></rect><rect width="564" height="3" x="-176" y="363.5" rx="1.5" transform="rotate(45, 106, 365)" opacity="0.32"></rect><rect width="385" height="3" x="-56.5" y="201.5" rx="1.5" transform="rotate(45, 136, 203)" opacity="0.90"></rect><rect width="418" height="3" x="95" y="357.5" rx="1.5" transform="rotate(45, 304, 359)" opacity="0.46"></rect><rect width="707" height="3" x="-88.5" y="657.5" rx="1.5" transform="rotate(45, 265, 659)" opacity="0.10"></rect><rect width="257" height="3" x="491.5" y="301.5" rx="1.5" transform="rotate(45, 620, 303)" opacity="0.98"></rect><rect width="322" height="3" x="525" y="45.5" rx="1.5" transform="rotate(45, 686, 47)" opacity="0.47"></rect><rect width="343" height="3" x="523.5" y="513.5" rx="1.5" transform="rotate(45, 695, 515)" opacity="0.93"></rect><rect width="522" height="3" x="356" y="71.5" rx="1.5" transform="rotate(45, 617, 73)" opacity="0.18"></rect><rect width="378" height="3" x="301" y="216.5" rx="1.5" transform="rotate(45, 490, 218)" opacity="0.76"></rect><rect width="415" height="3" x="91.5" y="210.5" rx="1.5" transform="rotate(45, 299, 212)" opacity="0.57"></rect><rect width="387" height="3" x="166.5" y="132.5" rx="1.5" transform="rotate(45, 360, 134)" opacity="1.00"></rect><rect width="384" height="3" x="570" y="385.5" rx="1.5" transform="rotate(45, 762, 387)" opacity="0.94"></rect><rect width="88" height="3" x="647" y="424.5" rx="1.5" transform="rotate(45, 691, 426)" opacity="0.09"></rect><rect width="67" height="3" x="704.5" y="30.5" rx="1.5" transform="rotate(45, 738, 32)" opacity="0.84"></rect><rect width="572" height="3" x="-132" y="53.5" rx="1.5" transform="rotate(45, 154, 55)" opacity="0.75"></rect><rect width="155" height="3" x="360.5" y="43.5" rx="1.5" transform="rotate(45, 438, 45)" opacity="0.36"></rect><rect width="450" height="3" x="257" y="764.5" rx="1.5" transform="rotate(45, 482, 766)" opacity="0.86"></rect><rect width="307" height="3" x="561.5" y="583.5" rx="1.5" transform="rotate(45, 715, 585)" opacity="0.87"></rect><rect width="570" height="3" x="250" y="571.5" rx="1.5" transform="rotate(45, 535, 573)" opacity="0.36"></rect><rect width="340" height="3" x="188" y="647.5" rx="1.5" transform="rotate(45, 358, 649)" opacity="0.29"></rect><rect width="111" height="3" x="194.5" y="459.5" rx="1.5" transform="rotate(45, 250, 461)" opacity="0.47"></rect><rect width="67" height="3" x="747.5" y="19.5" rx="1.5" transform="rotate(45, 781, 21)" opacity="0.19"></rect><rect width="201" height="3" x="85.5" y="281.5" rx="1.5" transform="rotate(45, 186, 283)" opacity="0.78"></rect><rect width="473" height="3" x="-30.5" y="147.5" rx="1.5" transform="rotate(45, 206, 149)" opacity="0.49"></rect><rect width="57" height="3" x="44.5" y="569.5" rx="1.5" transform="rotate(45, 73, 571)" opacity="0.63"></rect><rect width="442" height="3" x="-178" y="642.5" rx="1.5" transform="rotate(45, 43, 644)" opacity="0.15"></rect><rect width="476" height="3" x="-187" y="44.5" rx="1.5" transform="rotate(45, 51, 46)" opacity="0.20"></rect><rect width="730" height="3" x="-176" y="593.5" rx="1.5" transform="rotate(45, 189, 595)" opacity="0.30"></rect><rect width="634" height="3" x="349" y="150.5" rx="1.5" transform="rotate(45, 666, 152)" opacity="0.16"></rect><rect width="167" height="3" x="-51.5" y="731.5" rx="1.5" transform="rotate(45, 32, 733)" opacity="0.86"></rect><rect width="240" height="3" x="369" y="357.5" rx="1.5" transform="rotate(45, 489, 359)" opacity="0.91"></rect><rect width="63" height="3" x="336.5" y="35.5" rx="1.5" transform="rotate(45, 368, 37)" opacity="0.22"></rect><rect width="544" height="3" x="477" y="737.5" rx="1.5" transform="rotate(45, 749, 739)" opacity="0.24"></rect><rect width="413" height="3" x="564.5" y="625.5" rx="1.5" transform="rotate(45, 771, 627)" opacity="0.89"></rect><rect width="118" height="3" x="540" y="680.5" rx="1.5" transform="rotate(45, 599, 682)" opacity="0.26"></rect><rect width="526" height="3" x="-127" y="686.5" rx="1.5" transform="rotate(45, 136, 688)" opacity="0.85"></rect><rect width="264" height="3" x="638" y="496.5" rx="1.5" transform="rotate(45, 770, 498)" opacity="0.66"></rect><rect width="191" height="3" x="442.5" y="704.5" rx="1.5" transform="rotate(45, 538, 706)" opacity="0.77"></rect><rect width="369" height="3" x="61.5" y="60.5" rx="1.5" transform="rotate(45, 246, 62)" opacity="0.95"></rect><rect width="120" height="3" x="609" y="651.5" rx="1.5" transform="rotate(45, 669, 653)" opacity="0.67"></rect><rect width="344" height="3" x="-6" y="507.5" rx="1.5" transform="rotate(45, 166, 509)" opacity="0.49"></rect><rect width="432" height="3" x="277" y="109.5" rx="1.5" transform="rotate(45, 493, 111)" opacity="0.76"></rect><rect width="233" height="3" x="432.5" y="38.5" rx="1.5" transform="rotate(45, 549, 40)" opacity="0.98"></rect><rect width="290" height="3" x="-79" y="484.5" rx="1.5" transform="rotate(45, 66, 486)" opacity="0.41"></rect><rect width="849" height="3" x="164.5" y="414.5" rx="1.5" transform="rotate(45, 589, 416)" opacity="0.53"></rect><rect width="221" height="3" x="-20.5" y="769.5" rx="1.5" transform="rotate(45, 90, 771)" opacity="0.68"></rect><rect width="565" height="3" x="112.5" y="230.5" rx="1.5" transform="rotate(45, 395, 232)" opacity="0.42"></rect><rect width="429" height="3" x="53.5" y="302.5" rx="1.5" transform="rotate(45, 268, 304)" opacity="0.29"></rect><rect width="113" height="3" x="174.5" y="237.5" rx="1.5" transform="rotate(45, 231, 239)" opacity="0.96"></rect><rect width="430" height="3" x="29" y="388.5" rx="1.5" transform="rotate(45, 244, 390)" opacity="0.18"></rect><rect width="189" height="3" x="228.5" y="753.5" rx="1.5" transform="rotate(45, 323, 755)" opacity="0.66"></rect><rect width="440" height="3" x="369" y="200.5" rx="1.5" transform="rotate(45, 589, 202)" opacity="0.47"></rect><rect width="479" height="3" x="-201.5" y="220.5" rx="1.5" transform="rotate(45, 38, 222)" opacity="0.14"></rect></g></svg>