<svg xmlns="http://www.w3.org/2000/svg" version="1.1" xmlns:xlink="http://www.w3.org/1999/xlink" xmlns:svgjs="http://svgjs.dev/svgjs" viewBox="0 0 325 100"><defs><linearGradient x1="50%" y1="0%" x2="50%" y2="100%" id="ssspill-grad"><stop stop-color="hsl(37, 99%, 67%)" stop-opacity="1" offset="45%"></stop><stop stop-color="hsl(316, 73%, 52%)" stop-opacity="1" offset="100%"></stop></linearGradient></defs><rect width="100%" height="100%" fill="hsl(292, 100%, 22%)"></rect><g fill="url(#ssspill-grad)">
    <rect width="100%" height="40" fill="hsl(37, 99%, 67%)"></rect>

    <rect x="0" width="7.69%" height="86.94726075529265" rx="15"></rect>
      <rect x="50" width="7.69%" height="58.83269194647228" rx="15"></rect>
      <rect x="100" width="7.69%" height="58.959436659834175" rx="15"></rect>
      <rect x="150" width="7.69%" height="72.753442653412" rx="15"></rect>
      <rect x="200" width="7.69%" height="92.88118791871904" rx="15"></rect>
      <rect x="250" width="7.69%" height="57.69289083830939" rx="15"></rect>
      <rect x="300" width="7.69%" height="57.26672891522485" rx="15"></rect>
  </g><g fill="hsl(292, 100%, 22%)">
    <rect x="25" y="8.495103297592431" width="7.69%" height="60" rx="15"></rect>
      <rect x="75" y="14.94387088610402" width="7.69%" height="60" rx="15"></rect>
      <rect x="125" y="2.1326262551203468" width="7.69%" height="60" rx="15"></rect>
      <rect x="175" y="17.274974365985734" width="7.69%" height="60" rx="15"></rect>
      <rect x="225" y="22.257782675896625" width="7.69%" height="60" rx="15"></rect>
      <rect x="275" y="20.772765698975093" width="7.69%" height="60" rx="15"></rect>
  </g></svg>