<svg xmlns="http://www.w3.org/2000/svg" version="1.1" xmlns:xlink="http://www.w3.org/1999/xlink" xmlns:svgjs="http://svgjs.dev/svgjs" viewBox="0 0 800 800" opacity="0.33"><defs><linearGradient x1="50%" y1="0%" x2="50%" y2="100%" id="cccoil-grad"><stop stop-color="hsl(205, 69%, 60%)" stop-opacity="1" offset="0%"></stop><stop stop-color="hsl(205, 69%, 80%)" stop-opacity="1" offset="100%"></stop></linearGradient></defs><g stroke="url(#cccoil-grad)" fill="none" stroke-linecap="round"><circle r="478.5" cx="400" cy="400" stroke-width="7" stroke-dasharray="2556 3007" transform="rotate(360, 400, 400)" stroke-dashoffset="97" opacity="1.00"></circle><circle r="462" cx="400" cy="400" stroke-width="7" stroke-dasharray="2379 2903" transform="rotate(347, 400, 400)" stroke-dashoffset="97" opacity="0.97"></circle><circle r="445.5" cx="400" cy="400" stroke-width="7" stroke-dasharray="2209 2799" transform="rotate(334, 400, 400)" stroke-dashoffset="97" opacity="0.93"></circle><circle r="429" cx="400" cy="400" stroke-width="7" stroke-dasharray="2046 2695" transform="rotate(321, 400, 400)" stroke-dashoffset="97" opacity="0.90"></circle><circle r="412.5" cx="400" cy="400" stroke-width="7" stroke-dasharray="1888 2592" transform="rotate(309, 400, 400)" stroke-dashoffset="97" opacity="0.86"></circle><circle r="396" cx="400" cy="400" stroke-width="7" stroke-dasharray="1737 2488" transform="rotate(296, 400, 400)" stroke-dashoffset="97" opacity="0.83"></circle><circle r="379.5" cx="400" cy="400" stroke-width="7" stroke-dasharray="1592 2384" transform="rotate(283, 400, 400)" stroke-dashoffset="97" opacity="0.80"></circle><circle r="363" cx="400" cy="400" stroke-width="7" stroke-dasharray="1454 2281" transform="rotate(270, 400, 400)" stroke-dashoffset="97" opacity="0.76"></circle><circle r="346.5" cx="400" cy="400" stroke-width="7" stroke-dasharray="1322 2177" transform="rotate(257, 400, 400)" stroke-dashoffset="97" opacity="0.73"></circle><circle r="330" cx="400" cy="400" stroke-width="7" stroke-dasharray="1196 2073" transform="rotate(244, 400, 400)" stroke-dashoffset="97" opacity="0.69"></circle><circle r="313.5" cx="400" cy="400" stroke-width="7" stroke-dasharray="1076 1970" transform="rotate(231, 400, 400)" stroke-dashoffset="97" opacity="0.66"></circle><circle r="297" cx="400" cy="400" stroke-width="7" stroke-dasharray="963 1866" transform="rotate(219, 400, 400)" stroke-dashoffset="97" opacity="0.63"></circle><circle r="280.5" cx="400" cy="400" stroke-width="7" stroke-dasharray="856 1762" transform="rotate(206, 400, 400)" stroke-dashoffset="97" opacity="0.59"></circle><circle r="264" cx="400" cy="400" stroke-width="7" stroke-dasharray="755 1659" transform="rotate(193, 400, 400)" stroke-dashoffset="97" opacity="0.56"></circle><circle r="247.5" cx="400" cy="400" stroke-width="7" stroke-dasharray="661 1555" transform="rotate(180, 400, 400)" stroke-dashoffset="97" opacity="0.53"></circle><circle r="231" cx="400" cy="400" stroke-width="7" stroke-dasharray="573 1451" transform="rotate(167, 400, 400)" stroke-dashoffset="97" opacity="0.49"></circle><circle r="214.5" cx="400" cy="400" stroke-width="7" stroke-dasharray="491 1348" transform="rotate(154, 400, 400)" stroke-dashoffset="97" opacity="0.46"></circle><circle r="198" cx="400" cy="400" stroke-width="7" stroke-dasharray="415 1244" transform="rotate(141, 400, 400)" stroke-dashoffset="97" opacity="0.42"></circle><circle r="181.5" cx="400" cy="400" stroke-width="7" stroke-dasharray="346 1140" transform="rotate(129, 400, 400)" stroke-dashoffset="97" opacity="0.39"></circle><circle r="165" cx="400" cy="400" stroke-width="7" stroke-dasharray="283 1037" transform="rotate(116, 400, 400)" stroke-dashoffset="97" opacity="0.36"></circle><circle r="148.5" cx="400" cy="400" stroke-width="7" stroke-dasharray="227 933" transform="rotate(103, 400, 400)" stroke-dashoffset="97" opacity="0.32"></circle><circle r="132" cx="400" cy="400" stroke-width="7" stroke-dasharray="176 829" transform="rotate(90, 400, 400)" stroke-dashoffset="97" opacity="0.29"></circle><circle r="115.5" cx="400" cy="400" stroke-width="7" stroke-dasharray="132 726" transform="rotate(77, 400, 400)" stroke-dashoffset="97" opacity="0.25"></circle><circle r="99" cx="400" cy="400" stroke-width="7" stroke-dasharray="94 622" transform="rotate(64, 400, 400)" stroke-dashoffset="97" opacity="0.22"></circle><circle r="82.5" cx="400" cy="400" stroke-width="7" stroke-dasharray="63 518" transform="rotate(51, 400, 400)" stroke-dashoffset="97" opacity="0.19"></circle><circle r="66" cx="400" cy="400" stroke-width="7" stroke-dasharray="38 415" transform="rotate(39, 400, 400)" stroke-dashoffset="97" opacity="0.15"></circle><circle r="49.5" cx="400" cy="400" stroke-width="7" stroke-dasharray="19 311" transform="rotate(26, 400, 400)" stroke-dashoffset="97" opacity="0.12"></circle><circle r="33" cx="400" cy="400" stroke-width="7" stroke-dasharray="6 207" transform="rotate(13, 400, 400)" stroke-dashoffset="97" opacity="0.08"></circle><circle r="16.5" cx="400" cy="400" stroke-width="7" stroke-dasharray="0 104" stroke-dashoffset="97" opacity="0.05"></circle></g></svg>