<svg xmlns="http://www.w3.org/2000/svg" version="1.1" xmlns:xlink="http://www.w3.org/1999/xlink" viewBox="0 0 1066 800" style="overflow: hidden; display: block;" width="1066" height="800"><defs><linearGradient id="dddraw-gradient" x1="711" y1="-400" x2="711" y2="800" spreadMethod="pad" gradientUnits="userSpaceOnUse"><stop offset="0%" stop-color="hsl(37, 99%, 67%)" stop-opacity="1"></stop><stop offset="100%" stop-color="hsl(316, 73%, 52%)" stop-opacity="1"></stop></linearGradient></defs><g id="two-0" transform="matrix(1 0 0 1 0 0)" opacity="1"><path transform="matrix(1 0 0 1 0 0)" id="two-23" d="M 280.468261 368.365386 C 280.468261 368.365386 281.403129 368.365386 281.863586 368.365386 C 282.324043 368.365386 282.798453 368.365386 283.258911 368.365386 C 283.719368 368.365386 284.193778 368.365386 284.654235 368.365386 C 285.114682 368.365386 285.589082 368.365386 286.04953 368.365386 C 286.509987 368.365386 286.984397 368.365386 287.444854 368.365386 C 287.905311 368.365386 288.379722 368.365386 288.840179 368.365386 C 289.300636 368.365386 289.909911 368.690979 290.235504 368.365386 C 290.561096 368.039794 290.235504 367.430519 290.235504 366.970062 C 290.235504 366.509615 289.909918 365.900353 290.235504 365.574768 C 290.561096 365.249175 291.170371 365.574768 291.630828 365.574768 C 292.091286 365.574768 292.565696 365.574768 293.026153 365.574768 C 293.48661 365.574768 293.961021 365.574768 294.421478 365.574768 C 294.881935 365.574768 295.391395 365.398561 295.816802 365.574768 C 296.418414 365.823959 296.962929 366.368453 297.212127 366.970062 C 297.388339 367.395468 297.53772 368.039794 297.212127 368.365386 C 296.886535 368.690979 296.27726 368.365386 295.816802 368.365386 C 295.356345 368.365386 294.881935 368.365386 294.421478 368.365386 C 293.961021 368.365386 293.48661 368.365386 293.026153 368.365386 C 292.565696 368.365386 292.091286 368.365386 291.630828 368.365386 C 291.170371 368.365386 290.695961 368.365386 290.235504 368.365386 C 289.775046 368.365386 289.300636 368.365386 288.840179 368.365386 C 288.379722 368.365386 287.905311 368.365386 287.444854 368.365386 C 286.984397 368.365386 286.509987 368.365386 286.04953 368.365386 C 285.589082 368.365386 285.114682 368.365386 284.654235 368.365386 C 284.193778 368.365386 283.258911 368.365386 283.258911 368.365386 " fill="transparent" stroke="url(#dddraw-gradient)" stroke-width="25" stroke-opacity="1" fill-opacity="1" visibility="visible" stroke-linecap="butt" stroke-linejoin="miter" stroke-miterlimit="4"></path><path transform="matrix(1 0 0 1 0 0)" id="two-24" d="M 283.258911 368.365386 C 283.258911 368.365386 284.228829 368.541598 284.654235 368.365386 C 285.255844 368.116188 285.589077 367.430514 286.04953 366.970062 C 286.509982 366.50961 286.843243 365.823959 287.444854 365.574768 C 287.870262 365.398561 288.379722 365.574768 288.840179 365.574768 C 289.300636 365.574768 289.775046 365.574768 290.235504 365.574768 C 290.695961 365.574768 291.170371 365.574768 291.630828 365.574768 C 292.091286 365.574768 292.565696 365.574768 293.026153 365.574768 C 293.48661 365.574768 293.961021 365.574768 294.421478 365.574768 C 294.881935 365.574768 295.356345 365.574768 295.816802 365.574768 C 296.27726 365.574768 297.03592 365.14936 297.212127 365.574768 C 297.461319 366.176379 296.418414 366.72087 295.816802 366.970062 C 295.391395 367.146269 294.421478 366.970062 294.421478 366.970062 " fill="transparent" stroke="url(#dddraw-gradient)" stroke-width="25" stroke-opacity="1" fill-opacity="1" visibility="visible" stroke-linecap="butt" stroke-linejoin="miter" stroke-miterlimit="4"></path></g><path d="M 208.49987946580026 244.18161010742188 Q 208.49987946580026 244.18161010742188 208.54169960303813 248.9954803466797 208.58351974027602 253.8093505859375 208.8599266428904 261.6644582211423 209.1363335455048 269.51956585634707 209.40597868087565 276.3733428330236 209.67562381624649 283.2271198097002 209.9053373428148 289.56367266758764 210.1350508693831 295.9002255254751 210.34335862118508 302.2924479894873 210.55166637298706 308.68467045349956 210.73193521427248 315.5336189944916 210.91220405555794 322.38256753548353 210.22043192376267 328.68071168562403 209.5286597919674 334.9788558357646 208.10395450773922 341.143276758991 206.679249223511 347.30769768221745 207.06038192360342 354.7775393440814 207.44151462369584 362.24738100594533 207.53213510043764 369.40588940149223 207.62275557717948 376.5643977970391 207.72185839656328 383.511954046301 207.82096121594708 390.45951029556295 208.4078839804099 399.5742384866632 208.99480674487273 408.68896667776346 209.10775875832246 416.66671005099033 209.22071077177216 424.64445342421726 209.2476514996583 431.76829494545984 209.27459222754445 438.8921364667024 209.28768056903908 446.1291905372249 209.30076891053372 453.36624460774726 210.71644029822733 460.9450419352206 212.13211168592096 468.523839262694 212.8304116572017 476.0714119169603 213.5287116284824 483.61898457122663 214.12265517631542 490.18933535734425 214.71659872414844 496.7596861434618 215.58743609992806 503.5537492511094 216.45827347570767 510.34781235875704 217.17989481460205 516.8233968015636 217.90151615349646 523.2989812443702 219.69178633434024 529.3920852676772 221.48205651518398 535.4851892909842 223.21406538769918 542.4325889716945 224.94607426021435 549.3799886524049 228.49399480466795 554.8864529204504 232.04191534912155 560.3929171884961 238.5038256583258 563.7871673773727 244.9657359675301 567.1814175662493 251.87651443927263 569.3310666202506 258.7872929110152 571.4807156742519 265.25012098618845 572.9738857170812 271.71294906136177 574.4670557599105 279.4566031821645 575.9230108425336 287.20025730296715 577.3789659251565 294.13547377617056 578.731207511644 301.0706902493739 580.0834490981314 308.99996554322274 580.1227778187888 316.9292408370716 580.1621065394461 323.2062985982442 580.1586684718632 329.4833563594168 580.1552304042802 335.7543637972756 580.785427537005 342.02537123513434 581.4156246697298 349.42253426368956 582.1422628070347 356.81969729224477 582.8689009443395 363.12563689311753 583.5598424969405 369.4315764939903 584.2507840495416 376.06958226556594 584.8947739324083 382.70758803714165 585.538763815275 391.24834715307946 585.6992964876641 399.7891062690173 585.8598291600532 406.8157151171474 586.483485418434 413.8423239652776 587.1071416768149 420.78087485422526 587.8894297695151 427.7194257431729 588.6717178622154 434.81863186307817 588.6439194960412 441.91783798298343 588.6161211298672 449.43478379386084 588.6289699797236 456.95172960473826 588.64181882958 464.3836600491019 588.6536590069727 471.81559049346555 588.6654991843656 479.39501764250815 587.996915462589 486.9744447915508 587.3283317408124 494.70248701313017 586.993696631655 502.43052923470947 586.6590615224977 510.9056660331977 586.3762248073965 519.3808028316859 586.0933880922952 526.3287203813611 585.457944667789 533.2766379310365 584.8225012432827 541.1774948857583 584.7590343128219 549.07835184048 584.6955673823611 557.532771165482 584.7019268753997 565.987190490484 584.7082863684383 574.2945871315864 584.7108364851142 582.6019837726888 584.71338660179 590.097043038212 584.69882206878 597.5921023037353 584.68425753577 604.5856401384563 584.6630162928863 611.5791779731771 584.6417750500025 618.6865635077186 584.3792292216136 625.7939490422599 584.1166833932248 635.1687301533664 582.6406818402452 644.543511264473 581.1646802872655 652.7166356351624 580.9626079205555 660.889760005852 580.7605355538456 667.3213753582461 580.7378796845611 673.75299071064 580.7152238152767 681.6127648519879 579.3147123142878 689.4725389933358 577.9142008132989 695.6614502201151 576.9060916160843 701.8503614468942 575.8979824188696 708.3857810579948 574.9862093580468 714.9212006690952 574.074436297224 722.9092299055965 573.2981956835126 730.8972591420978 572.5219550698014 738.3893213591546 571.7060635813062 745.8813835762114 570.8901720928111 753.399731994308 570.8330973526935 760.9180804124046 570.7760226125758 769.0611736443311 569.5207968206008 777.2042668762576 568.2655710286258 786.5873555463796 566.2265450320979 795.9704442165016 564.1875190355701 804.0116911070111 562.2125717792082 812.0529379975204 560.2376245228464 819.421888066446 558.4964937772988 826.7908381353716 556.7553630317511 833.2654288035305 553.1348241188962 839.7400194716896 549.5142852060411 843.7953074548932 544.2174178347059 847.8505954380967 538.9205504633705 852.3960916660287 532.7864567531776 856.9415878939608 526.6523630429848 862.1443700311893 522.7838639982032 867.3471521684179 518.9153649534215 868.6797844877353 510.74300966010514 870.0124168070527 502.5706543667888 871.4148383485643 496.355710892046 872.817259890076 490.1407674173032 874.2169812163263 483.1392185265278 875.6167025425765 476.13766963575245 877.0017570447601 468.94722687574466 878.3868115469438 461.7567841157369 878.4539469412075 454.7556593642273 878.5210823354711 447.7545346127177 878.5157009156109 441.09252220346883 878.5103194957507 434.43050979422 878.4861982290499 428.0585464677944 878.4620769623493 421.68658314136877 878.5063054384516 413.8352949799816 878.5505339145537 405.9840068185944 878.707150999543 396.73474040216774 878.8637680845325 387.48547398574107 879.0331406736188 377.4292778282114 879.2025132627051 367.37308167068176 879.2739776289405 358.6166109866042 879.345441995176 349.8601403025267 878.6888861817251 342.5430539796834 878.0323303682742 335.2259676568401 876.7545461743875 328.90879520633564 875.476761980501 322.59162275583117 874.040280851315 315.61746084708204 872.603799722129 308.643298938333 872.3464747876121 302.2554699972963 872.0891498530951 295.86764105625963 871.5182100283187 288.862763606837 870.9472702035423 281.85788615741444 870.6883797275102 275.0790574239438 870.4294892514782 268.30022869047315 869.2401587340164 261.29628142806274 868.0508282165545 254.29233416565236 866.4313347678494 245.75253017690767 864.8118413191443 237.21272618816297 862.4484331536091 229.7927265007736 860.0850249880739 222.3727268133842 857.7641917250097 216.12104318071647 855.4433584619455 209.86935954804875 849.3107841079734 207.0893398470084 843.1782097540012 204.30932014596806 835.8904703592796 200.50822089302687 828.6027309645581 196.70712164008572 821.6288122697093 194.79305191514743 814.6548935748606 192.87898219020911 808.5019516140708 191.29063724786204 802.349009653281 189.70229230551493 795.5479773270933 188.72756481111946 788.7469450009057 187.75283731672403 781.7665725737502 187.72706554179655 774.7862001465946 187.70129376686907 768.028052224573 187.67156379744267 761.2699043025513 187.6418338280163 754.2696164645718 187.60895221452367 747.2693286265921 187.57607060103103 740.0025622441401 187.5694884417597 732.7357958616882 187.56290628248837 725.8335752823828 187.57842237025807 718.9313547030772 187.5939384580278 711.9859667643095 187.60897342073275 705.0405788255417 187.62400838343768 697.8805602564877 187.63455926838188 690.7205416874336 187.64511015332607 683.9029922621439 187.66844128363456 677.0854428368543 187.69177241394306 670.5080095615591 187.7131644582903 663.9305762862639 187.73455650263756 657.6889186612977 188.44761821414986 651.4472610363316 189.16067992566215 643.8505915863243 189.79789649946747 636.2539221363169 190.43511307327276 628.3270480006689 192.31790825003384 620.400173865021 194.20070342679492 608.882765291927 195.2038352004868 597.3653567188328 196.20696697417867 588.4943264063577 192.99969445090574 579.6232960938825 189.79242192763283 573.2852570065338 190.17691723390317 566.9472179191853 190.56141254017348 560.5953899607443 190.539110033356 554.2435620023034 190.5168075265385 547.965327496346 189.83758469272118 541.6870929903887 189.15836185890382 535.0407489864269 189.11739957968706 528.3944049824652 189.07643730047033 521.4587559019369 189.04302791933875 514.5231068214088 189.00961853820718 507.0434053297172 188.969981000867 499.5637038380257 188.93034346352684 492.9045992815056 188.90692729733306 486.2454947249855 188.88351113113927 479.5894185648338 188.87054476036138 472.9333424046821 188.85757838958352 465.13752320811966 188.850945811254 457.3417040115573 188.8443132329245 449.1333686761585 189.36808020879482 440.92503334075974 189.89184718466518 433.88906800907745 190.73915679499123 426.85310267739516 191.58646640531725 419.0740969827722 191.61259467805186 411.29509128814914 191.63872295078647 403.7895061872724 191.63013584887955 396.2839210863957 191.62154874697262 388.72010899359486 191.7691389133531 381.15629690079396 191.91672907973356 374.54189449053456 190.5476721338934 367.92749208027516 189.17861518805321 360.5945088066921 188.3498664044165 353.261525533109 187.52111762077976 346.92811913020523 187.2864098119877 340.59471272730144 187.05170200319566 333.65740507295277 186.42121600608746 326.72009741860404 185.79073000897927 320.4629557454215 185.84583944086478 314.205814072239 185.90094887275026 307.2185947589094 185.92401218862784 300.2313754455798 185.94707550450545 293.1319636420585 186.70721164502265 286.0325518385372 187.46734778553989 279.103637318201 188.18940371086003 272.17472279786483 188.91145963618018 265.77161112431247 191.34490608625066 259.3684994507601 193.7783525363211 253.53352113312155 197.83028314033257 247.69854281548302 201.88221374434403 241.83392921403095 205.47777163856426 235.9693156125789 209.0733295327845 231.4048374566604 214.57373569196773 226.8403593007419 220.07414185115093 221.66162425771375 225.531651492961 216.48288921468557 230.98916113477108 212.70428188792374 236.226877320869 208.9256745611619 241.46459350696688 210.2439297546851 246.06713272489282 211.5621849482083 250.66967194281872 211.09538750120856 253.47857720372895 210.62859005420884 256.2874824646392 209.28931423083787 258.8002874491592 207.95003840746693 261.3130924336793 205.87850673996616 263.2667057966138 203.8069750724654 265.2203191595483 201.2200774732534 266.41019706609416 198.63317987404142 267.60007497264 195.80176520463033 267.90163689188466 192.97035053521924 268.20319881112925 190.1908686589173 267.5848711305231 187.41138678261538 266.9665434499169 184.97485018558336 265.4930652408421 182.53831358855132 264.0195870317673 180.69982829568164 261.8452318516744 178.861343002812 259.67087667158154 177.8133989095811 257.02330008180036 176.76545481635026 254.3757234920192 176.61777194594984 251.53212746039216 176.47008907554942 248.68853142876512 177.23812986349486 245.94664121044002 178.0061706514403 243.20475099211492 179.60952102449062 240.8516432167391 181.21287139754097 238.4985354413633 183.48366014839445 236.78058111417874 185.7544488992479 235.06262678699423 188.45492384626013 234.15969617955307 191.15539879327235 233.25676557211193 194.00281949663503 233.2633957573638 196.8502401999977 233.27002594261566 199.54648096042263 234.18552273841448 202.24272172084756 235.10101953421326 204.50548541897984 236.82953018437118 206.76824911711216 238.5580408345291 208.36062379644574 240.91858981769212 209.95299847577934 243.27913880085512 210.70826208704193 246.02457601536165 211.46352569830452 248.77001322986817 211.30260194202668 251.61289067463431 211.14167818574882 254.45576811940046 210.08141582169256 257.0984357755125 209.0211534576363 259.7411034316245 207.17256223520042 261.9068732978909 205.32397101276453 264.07264316415734 202.88059892091874 265.5347585638724 200.43722682907296 266.9968739635874 197.6548955708211 267.6022510284399 194.87256431256927 268.2076280932924 192.04258470511445 267.8928836847883 189.21260509765963 267.57813927628416 186.63127675294444 266.3762272170783 184.04994840822926 265.17431515787234 181.98753708534986 263.21107595783747 179.92512576247046 261.2478367578026 178.59756647135606 258.72882207942723 177.27000718024163 256.2098074010519 176.8162957291135 253.3987587461172 176.36258427798538 250.58771009118254 176.36257813084646 250.5903500612526 176.36257198370754 250.5929900313226 176.39314500009408 246.9760789928037 176.42371801648062 243.35916795428477 178.1912714053326 235.51737123360874 179.95882479418458 227.67557451293274 183.6789455984234 220.15702217756325 187.39906640266224 212.63846984219379 191.85420800025418 207.09771421261968 196.3093495978461 201.55695858304557 202.6282521957082 196.68362956550413 208.9471547935703 191.81030054796267 213.89511823192845 186.35787489288452 218.8430816702866 180.90544923780635 223.95838245903775 177.10851161292697 229.07368324778886 173.3115739880476 236.74284384859664 167.77657979928586 244.41200444940438 162.2415856105241 250.37136903005046 159.9253947630487 256.33073361069654 157.60920391557332 264.876504455359 156.42909876749198 273.42227530002145 155.24899361941064 282.43568159076307 154.11601021181798 291.4490878815047 152.9830268042253 297.7768663494859 152.34085275364674 304.10464481746703 151.69867870306823 310.9994511127829 151.7480858612271 317.8942574080987 151.797493019386 324.3034781130709 151.86783570938096 330.7126988180431 151.93817839937591 337.2669711640919 152.70476601459916 343.8212435101407 153.47135362982243 351.1491914303949 153.8700543464004 358.4771393506491 154.26875506297836 366.708332299667 155.11379015809757 374.9395252486849 155.95882525321682 381.84611709524904 157.24662278864727 388.75270894181324 158.53442032407773 395.65541630939094 157.8595940472373 402.5581236769687 157.18476777039686 409.6382422664693 157.18895368647668 416.71836085596993 157.19313960255653 423.82454457647896 157.11586021071975 430.93072829698804 157.038580818883 437.8573142104072 155.7172747188566 444.78390012382636 154.3959686188302 451.06280206776125 154.4006140699159 457.3417040116962 154.4052595210016 465.1375232127517 154.39862694337734 472.9333424138073 154.39199436575308 479.58941875304583 154.37902801618048 486.2454950922844 154.36606166660792 492.90460358783696 154.34264615037753 499.5637120833895 154.31923063414715 507.0435567089313 154.27961301881857 514.5234013344731 154.23999540349 521.4635827952836 154.20719665141775 528.4037642560943 154.17439789934548 535.2266432584024 154.1521519955536 542.0495222607105 154.12990609176174 548.3547370924196 154.826683271384 554.6599519241286 155.52346045100631 562.0838320109099 155.50335946269237 569.5077120976911 155.48325847437843 576.7380286274424 155.8076691359089 583.9683451571937 156.13207979743936 588.786689527008 161.09992809732637 593.6050338968223 166.06777639721335 602.703249442223 162.84789059615298 611.8014649876236 159.6280047950926 618.5102527022962 158.42955324312862 625.2190404169688 157.23110169116464 633.3483225953228 155.7141717544762 641.4776047736767 154.19724181778778 647.9062847045041 154.37210652391053 654.3349646353313 154.54697123003325 662.6456726821657 153.6495673491716 670.956380729 152.75216346831 677.9932516166882 152.77184432866778 685.0301225043763 152.79152518902555 691.3767186070227 152.80873508493596 697.723314709669 152.82594498084634 704.8680316623913 152.8375050637721 712.0127486151138 152.84906514669788 718.5824765334673 152.86891139411452 725.1522044518208 152.88875764153116 731.5794539357661 152.89403042282316 738.0067034197114 152.8993032041152 745.6457611330102 152.887561657834 753.2848188463091 152.8758201115528 760.3925450913512 152.8384600715491 767.5002713363931 152.80110003154536 775.6288882995273 152.76008552428172 783.7575052626615 152.71907101701808 790.253697634899 152.75226229049903 796.7498900071364 152.78545356397998 804.7837717686562 154.97446599930223 812.8176535301759 157.16347843462447 819.6760132784724 158.70693090534274 826.5343730267689 160.25038337606105 832.9444378492437 161.9308373193741 839.3545026717185 163.61129126268713 846.5128685360501 167.64263451283165 853.6712344003818 171.6739777629762 860.8253585453863 174.8505033132376 867.9794826903908 178.02702886349897 874.1445195547078 183.3862253255873 880.3095564190248 188.74542178767567 884.5390448575181 195.61664972244262 888.7685332960112 202.48787765720954 891.6116213070552 209.06435414302797 894.4547093180992 215.64083062884643 895.9703211441711 223.53206932401184 897.485932970243 231.42330801917723 899.3501653987373 239.71788573719223 901.2143978272316 248.01246345520724 902.815173547149 254.17011193493295 904.4159492670665 260.32776041465866 903.7712948288614 267.21076351058684 903.1266403906563 274.0937666065151 904.3750780736923 282.9908192463027 905.6235157567284 291.8878718860903 905.5898984393934 298.3833317053694 905.5562811220585 304.8787915246486 906.9659458553136 312.25950637473704 908.3756105885687 319.64022122482544 909.7262658963165 327.84452655958705 911.0769212040642 336.0488318943486 911.671647807568 342.9544860984427 912.2663744110718 349.8601403025368 912.3378387772933 358.61661098665104 912.4093031435149 367.3730816707652 912.5350914661722 374.3391879291027 912.6608797888293 381.3052941874402 912.7747424680332 387.8905993503979 912.8886051472371 394.4759045133556 913.0175140413816 403.0243592358603 913.1464229355261 411.57281395836503 913.139245215797 418.58467316397684 913.1320674960681 425.59653236958866 913.1096397873519 432.39177817522454 913.0872120786357 439.18702398086043 913.0875231552493 446.7335050940139 913.087834231863 454.2799862071673 912.835940144106 461.3513576992152 912.5840460563489 468.42272919126304 910.7896578524235 477.1457002134206 908.995269648498 485.86867123557806 907.5191610648337 492.4945751784683 906.0430524811693 499.1204791213586 904.6484355610811 505.769860143763 903.2538186409929 512.4192411661675 901.4956172127127 519.279977346866 899.7374157844323 526.1407135275646 895.7553684089453 531.9542778370069 891.7733210334582 537.7678421464493 887.7521831268725 543.1316938370692 883.7310452202869 548.4955455276892 879.5141030588367 553.9098790384744 875.2971608973864 559.3242125492598 869.0911571975263 566.4650069935716 862.8851534976661 573.6058014378834 854.6340943834177 579.4977266733858 846.3830352691693 585.3896519088883 839.4736832839156 587.3148894480266 832.564331298662 589.2401269871651 824.8903211227853 591.7487043688552 817.2163109469086 594.2572817505453 810.0253840071948 595.2320883418446 802.8344570674811 596.2068949331439 794.9638934846123 598.1899684404016 787.0933299017436 600.1730419476594 778.8542082578688 601.5035931945458 770.6150866139941 602.8341444414322 764.2879668932878 603.4552838291294 757.9608471725815 604.0764232168266 750.1856594205651 604.0544799217016 742.4104716685487 604.0325366265766 735.7995686063502 604.7305979076692 729.1886655441518 605.4286591887618 722.841306924885 606.0386385877609 716.493948305618 606.6486179867601 709.2597646884219 607.5761404520505 702.0255810712259 608.5036629173409 695.2113794073177 609.9202771573827 688.3971777434095 611.3368913974244 679.112753541254 612.5079065748403 669.8283293390986 613.678921752256 663.513525971236 613.7039314670859 657.1987226033735 613.7289411819158 650.8977744365686 613.9856028972018 644.5968262697638 614.2422646124878 637.9622774405154 615.6448783172845 631.3277286112669 617.0474920220811 624.7717412369979 617.5989498379188 618.2157538627288 618.1504076537566 611.4065665731844 618.1284088107043 604.5973792836398 618.1064099676521 597.527117073437 618.0848410593994 590.4568548632342 618.0632721511467 582.4978532764462 618.0590368397085 574.5388516896581 618.0548015282702 568.023183869756 618.0621842296059 561.507516049854 618.0695669309416 552.9883544516895 618.0851025794482 544.4691928535251 618.1006382279547 537.4270275426766 618.1996065794123 530.3848622318279 618.2985749308698 522.7650730425617 618.9712878314858 515.1452838532953 619.6440007321017 506.58298177620554 620.3835214697608 498.0206796991159 621.12304220742 491.2693125368551 621.1415803659108 484.5179453745944 621.1601185244017 478.2386640976005 621.8176815725892 471.95938282060666 622.4752446207768 464.4551563207435 622.487036390432 456.95092982088033 622.4988281600872 449.4200780710711 622.5101932656365 441.88922632126184 622.5215583711858 435.4354151021323 622.4822370166323 428.9816038830028 622.4429156620789 422.62121638502447 621.6769651158505 416.26082888704616 620.9110145696221 407.98475663690806 620.2969762135058 399.7086843867699 619.6829378573894 392.5705349378861 619.6734828931044 385.4323854890023 619.6640279288192 378.9569851095566 619.0529415614327 372.4815847301109 618.4418551940462 364.4042837631239 617.9357570920622 356.32698279613686 617.4296589900781 350.13907426416336 616.4749391604992 343.9511657321899 615.5202193309202 336.7161747745787 614.8807532150706 329.4811838169675 614.2412870992212 323.172293610603 614.2329109223101 316.8634034042385 614.2245347453991 309.3574782862215 614.1443418588206 301.8515531682045 614.064148972242 295.0885153337267 612.6863828252108 288.32547749924896 611.3086166781795 281.3418561545617 610.4821457675783 274.35823480987443 609.6556748569772 266.98696264669286 608.1777210213645 259.61569048351123 606.699767185752 251.89528670032695 604.7609024368764 244.17488291714264 602.8220376880008 237.23334061207157 600.8127815393198 230.29179830700053 598.8035253906388 223.35186587313427 595.9159517118717 216.41193343926804 593.0283780331047 211.62745300947233 588.7181683147087 206.84297257967665 584.4079585963127 202.5645961042927 579.0039198766276 198.28621962890873 573.5998811569424 195.84083789082933 566.3529986173714 193.39545615274994 559.1061160778005 190.16335810150952 550.9487535090958 186.93126005026906 542.7913909403911 185.52899044161066 534.886982020068 184.12672083295226 526.982573099745 183.5740681248343 519.6783711095532 183.02141541671634 512.3741691193613 181.45297005124473 503.8271331441323 179.88452468577313 495.2800971689033 179.89130250026415 488.8664422964574 179.89808031475513 482.45278742401155 179.14829600432904 474.47064204580704 178.39851169390298 466.48849666760253 177.11172885036024 460.2383555255353 175.8249460068175 453.9882143834682 175.83741188798083 446.4453851812932 175.84987776914417 438.9025559791183 175.85810242883724 431.86236662012976 175.8663270885303 424.82217726114123 175.76309643933072 417.45204507704426 175.65986579013114 410.0819128929473 175.07526035921944 401.1394564859411 174.49065492830775 392.1970000789349 174.58713389583858 385.6338788982623 174.68361286336943 379.0707577175898 174.77209481928134 372.0158123434853 174.86057677519327 364.9608669693809 174.97668116959875 357.9303170976204 175.09278556400423 350.8997672258599 175.98311503918683 344.59863241355146 176.87344451436945 338.29749760124304 178.33413585440576 330.3400325683633 179.79482719444206 322.38256753548353 179.97509603572752 315.5336189944916 180.15536487701294 308.68467045349956 180.36367262881492 302.2924479894873 180.5719803806169 295.9002255254751 180.8016939071852 289.56367266758764 181.03140743375351 283.2271198097002 181.30105256912435 276.3733428330236 181.5706977044952 269.51956585634707 181.8471046071096 261.6644582211423 182.12351150972398 253.8093505859375 182.16533164696187 248.9954803466797 182.20715178419974 244.18161010742188 182.39816860522637 242.60849561603413 182.589185426253 241.03538112464636 183.15113398271998 239.55369612141055 183.71308253918696 238.07201111817471 184.61330235458936 236.76787120509556 185.51352216999177 235.46373129201638 186.69969242636176 234.4129331421168 187.88586268273176 233.3621349922172 189.28904310903715 232.62575104334087 190.69222353534255 231.88936709446457 192.23086121927832 231.51019601631907 193.7694989032141 231.1310249381736 195.3541681502973 231.13110417163603 196.93883739738055 231.13118340509843 198.4774371565154 231.5105083451162 200.01603691565023 231.889833285134 201.41914369654495 232.62635754837078 202.8222504774397 233.36288181160756 204.008315648064 234.4137985732786 205.19438081868836 235.46471533494963 206.09447021559856 236.76894526348948 206.99455961250877 238.07317519202934 207.55635999766594 239.5549163827123 208.11816038282308 241.03665757339525 208.30901989144576 242.6097911585995 208.49987940006844 244.18292474380377 208.49987943293434 244.18226742561282 Z" fill="url(#dddraw-gradient)"></path><path d="M 449.87826586396733 237.68591898018553 Q 449.87826586396733 237.68591898018553 449.0642372277525 243.30007099848928 448.2502085915377 248.91422301679304 447.50104283266853 256.4322938435961 446.7518770737993 263.95036467039915 445.9948519278423 271.6748429883306 445.2378267818854 279.3993213062621 444.07850982944365 286.96999696939685 442.9191928770018 294.5406726325316 442.9949563381892 302.1350332900777 443.07071979937655 309.7293939476237 443.26025336980734 317.06803944011017 443.44978694023814 324.4066849325966 444.9112596997612 332.12045758870266 446.3727324592843 339.83423024480874 447.8811483671733 346.0312249372787 449.3895642750623 352.2282196297487 452.77073680345404 360.4627998328766 456.1519093318458 368.69738003600446 457.7403151970318 376.06397162911514 459.3287210622179 383.4305632222258 461.64615403798916 391.51160999990043 463.9635870137605 399.59265677757503 466.04828392458876 407.29549676723786 468.132980835417 414.99833675690064 470.1832025078961 421.8110085121287 472.23342418037515 428.62368026735675 474.1774518992979 436.9751634244726 476.12147961822063 445.3266465815884 478.77053069090306 455.1462582279537 481.4195817635855 464.96586987431897 483.71838568787666 471.17036989633226 486.0171896121679 477.37486991834555 487.52403041316916 484.2083238282025 489.0308712141704 491.0417777380594 490.40629429716455 497.7176270649856 491.7817173801586 504.3934763919118 492.6973433853514 511.3518626771756 493.6129693905442 518.3102489624393 497.65093538270366 524.6383088679821 501.6889013748631 530.9663687735249 508.24826982619834 534.7673955734047 514.8076382775336 538.5684223732845 521.2346534512174 541.3044027600646 527.6616686249012 544.0403831468446 533.8638094197037 545.3363917779661 540.0659502145062 546.6324004090877 547.7251498150414 546.8131584809086 555.3843494155766 546.9939165527294 562.0789535343092 547.0220645668553 568.7735576530418 547.0502125809813 578.0117144197175 546.5042302069803 587.2498711863931 545.9582478329792 593.5258144280727 545.7686280761791 599.8017576697524 545.5790083193789 606.716333960349 545.5325972683038 613.6309102509456 545.4861862172286 621.5063492849771 545.4935983462825 629.3817883190086 545.5010104753364 636.6252295648851 545.500617589703 643.8686708107616 545.5002247040695 651.650399257624 544.8369875641948 659.4321277044864 544.1737504243201 667.0412339307416 543.4733149993002 674.6503401569965 542.7728795742803 682.4829252860743 542.1030901971176 690.3155104151522 541.4333008199548 698.0486797265862 540.0073009138805 705.7818490380203 538.5813010078061 713.3753083043031 536.619466899127 720.9687675705859 534.6576327904479 727.9053521877759 533.2568956817073 734.8419368049658 531.8561585729667 742.520041967939 529.7152609538264 750.1981471309124 527.5743633346862 757.6135907994646 525.5220500777489 765.0290344680169 523.4697368208116 771.5956676252831 521.8362917686698 778.1623007825492 520.2028467165278 785.8818299451027 516.3280461285308 793.6013591076563 512.4532455405338 798.7752165469667 508.2371435787426 803.949073986277 504.0210416169513 809.3588064433333 496.6561895169098 814.7685389003896 489.2913374168683 817.4219951203588 482.83355875701704 820.0754513403282 476.3757800971657 822.2647553967543 468.7000464287005 824.4540594531804 461.0243127602353 825.6006066039128 454.0476408009817 826.7471537546451 447.0709688417281 826.8836194411483 440.12539830722596 827.0200851276514 433.1798277727239 827.0039237557585 426.6954200025313 826.9877623838654 420.2110122323387 826.9830786418946 412.8839753628529 826.9783948999238 405.556938493367 826.9871699084506 398.09602732970643 826.9959449169775 390.63511616604586 825.1381405473717 383.19013050258627 823.2803361777659 375.74514483912674 821.8436920631793 368.0773159955112 820.4070479485927 360.4094871518957 820.239928282952 352.0152980377534 820.0728086173111 343.6211089236111 819.3965891592065 336.7176098843029 818.7203697011021 329.8141108449947 817.2053989297141 321.88958160364064 815.6904281583261 313.96505236228666 813.4027031419148 306.32355810512195 811.1149781255035 298.6820638479572 808.0633004189939 293.02188721223666 805.0116227124843 287.36171057651615 801.9038038202317 281.6980409427583 798.7959849279791 276.03437130900056 795.3755933317968 270.15917419932816 791.9552017356145 264.2839770896557 786.4107733194587 259.049180681552 780.866344903303 253.81438427344835 772.3758642696114 251.34276373860263 763.8853836359199 248.87114320375687 756.7333321083236 246.79089527252717 749.5812805807273 244.71064734129746 741.8439904857773 242.64519721314934 734.1067003908274 240.57974708500123 725.0800874225658 239.02009622899308 716.0534744543043 237.46044537298494 709.59060456482 236.78904673943083 703.1277346753357 236.1176481058767 694.9933394413007 236.07327655147674 686.8589442072657 236.02890499707678 678.8683912751598 235.955116721126 670.8778383430538 235.88132844517517 662.1339931526363 235.79066027124426 653.3901479622187 235.69999209731336 646.034921231045 235.6736163201815 638.6796944998713 235.64724054304963 630.9394134745213 235.66292366036825 623.1991324491713 235.67860677768687 616.4405443241085 235.70904165163148 609.6819561990458 235.73947652557612 602.5002911202098 235.75710512513194 595.3186260413739 235.77473372468776 587.3009450473289 235.77668125990334 579.2832640532839 235.7786287951189 572.3270645449461 236.98059696208583 565.3708650366083 238.18256512905273 558.9889219600911 238.9501921404537 552.606978883574 239.71781915185468 546.3326801392753 240.40022485513302 540.0583813949767 241.08263055841135 532.6713307727525 241.9725254275807 525.2842801505284 242.86242029675006 517.2013809114643 244.67730598904984 509.11848167240026 246.49219168134965 502.5065308728082 248.44535154181918 495.89458007321605 250.3985114022887 489.39330070325866 250.9660339237788 482.89202133330133 251.53355644526894 476.5707260471505 251.57537821781767 470.2494307609997 251.6171999903664 463.48161366107536 252.33110164775857 456.71379656115096 253.04500330515074 450.76298854099946 253.80398476243738 444.81218052084796 254.56296621972402 442.0387540177919 254.1180487119999 439.2653275147358 253.67313120427576 436.7791574578281 252.36591867195023 434.2929874009204 251.0587061396247 432.3543764514045 249.02606407990282 430.4157655018886 246.99342202018093 429.22768673792234 244.448168593281 428.03960797395615 241.90291516638106 427.72645355574923 239.11153907798115 427.4132991375423 236.32016298958123 428.0078564153457 233.57492205298854 428.60241369314906 230.82968111639582 430.0424323630288 228.41800278234481 431.48245103290856 226.0063244482938 433.6171607600003 224.18071207498087 435.75187048709205 222.35509970166797 438.35776659946066 221.30669538649386 440.9636627118292 220.25829107131975 443.76790719861987 220.09686302283507 446.5721516854105 219.93543497435036 449.2811394086076 220.67788475184426 451.99012713180474 221.4203345293382 454.3202263616862 222.98892744511943 456.6503255915677 224.55752036090064 458.35757432367853 226.78802432261855 460.06482305578936 229.01852828433647 460.97047189720763 231.67740893840335 461.8761207386259 234.3362895924702 461.88534801658705 237.1451614325289 461.89457529454825 239.95403327258762 461.00641491061396 242.61880667551384 460.11825452667966 245.28358007844008 458.42569710749945 247.52525256551561 456.7331396883193 249.76692505259115 454.4133964424731 251.35079292267508 452.09365319662686 252.93466079275902 449.3896018543075 253.6948926617531 446.68555051198814 254.45512453074716 443.8803059625367 254.31212392128595 441.0750614130853 254.1691233118247 438.46233350134196 253.1378624254673 435.84960558959864 252.10660153910987 433.70294761761613 250.29505366288433 431.5562896456336 248.48350578665878 430.10045726974124 246.0813404614081 428.6446248938488 243.6791751361574 428.0320441481048 240.93789970554536 427.4194634023608 238.19662427493336 427.7142716525502 235.40325100017154 428.0090799027397 232.60987772540972 429.18041064724594 230.0568735257446 430.3517413917521 227.5038693260795 432.27695599242406 225.45853441514362 434.202170593096 223.41319950420777 436.679698573036 222.08968098709215 439.15722655297594 220.76616246997656 441.92767007868036 220.30303308479816 444.6981136043848 219.83990369961975 444.69550937467625 219.83991225463853 444.69290514496777 219.83992080965734 444.7051132503874 220.67151699423005 444.71732135580703 221.50311317880278 454.5702431289693 219.340100866733 464.42316490213165 217.1770885546632 470.7654463041248 217.20910443213887 477.107727706118 217.24112030961453 483.4958630856611 216.62940620027263 489.8839984652042 216.01769209093075 496.3814576734363 214.5028711499744 502.8789168816684 212.98805020901804 509.8430492416518 211.72022725309165 516.8071816016352 210.45240429716526 526.1797712600667 209.05919580845543 535.5523609184982 207.6659873197456 541.8830183249731 207.29532361130327 548.213675731448 206.92465990286095 554.8433491502283 205.99240920430128 561.4730225690087 205.0601585057416 570.378143311149 203.70654549496027 579.2832640532891 202.35293248417895 587.3009450474373 202.35488001940854 595.3186260415854 202.35682755463816 602.5002911230579 202.37445615462482 609.6819562045303 202.3920847546115 616.4405444266692 202.42251964176182 623.1991326488084 202.45295452891213 630.9394154004785 202.46863805099784 638.6796981521487 202.48432157308355 646.0349429554625 202.45795082812623 653.3901877587763 202.43158008316888 662.1343187760874 202.34097746168442 670.8784497933987 202.25037484019995 678.8736820429266 202.1774404939402 686.8689142924545 202.1045061476804 695.1684268703074 202.0875597496202 703.4679394481602 202.07061335155998 710.0908376231102 202.2908093081402 716.7137357980604 202.51100526472044 725.8493947924599 204.56176374644622 734.9850537868592 206.612522228172 742.7397791893827 207.83273859441377 750.4945045919061 209.05295496065554 757.077963273649 211.06373302723694 763.6614219553917 213.07451109381836 770.0191515634845 214.72612814726338 776.3768811715773 216.3777452007084 782.4722502534125 218.70354801521898 788.5676193352479 221.0293508297296 794.6191375070042 223.8663367891619 800.6706556787606 226.70332274859416 805.9555904571162 231.2894866431988 811.2405252354719 235.8756505378035 815.6274591425856 240.76716303254358 820.0143930496995 245.65867552728363 824.1751088020031 252.5781954907411 828.3358245543068 259.49771545419856 831.7564008789019 265.7671180742527 835.176977203497 272.03652069430694 838.192363996234 277.68307386544825 841.207750788971 283.3296270365896 843.6830851128382 290.07833632236645 846.1584194367053 296.82704560814324 848.1443472451513 305.0276539584158 850.1302750535973 313.22826230868833 851.5807599423717 319.976887258087 853.0312448311461 326.7255122074856 853.6913957763657 335.11901122581276 854.3515467215851 343.51251024413995 854.304478613112 350.1237750293862 854.257410504639 356.73503981463244 855.5906765277891 363.47512132315046 856.9239425509394 370.21520283166853 858.4781973470385 376.6693937809449 860.0324521431376 383.12358473022135 860.7017082976251 391.0477638983898 861.3709644521127 398.9719430665583 861.3777106963396 406.9847027047683 861.3844569405663 414.9974623429783 861.3659454402141 421.3167744867041 861.3474339398618 427.63608663042993 861.3150653376028 434.62040206639995 861.2826967353438 441.60471750236997 860.5762601982763 448.56972325771574 859.8698236612086 455.5347290130615 858.2202355517038 463.68453643348164 856.570647442199 471.83434385390177 854.4204872468299 480.3668701016463 852.2703270514609 488.8993963493908 848.2561215805918 496.86026678236885 844.2419161097226 504.82113721534694 839.2324461058961 512.4333568284732 834.2229761020695 520.0455764415993 829.4467328095448 526.057635772416 824.6704895170201 532.0696951032327 818.8770837183902 536.4355917495652 813.0836779197602 540.8014883958979 807.0217748162152 543.8202164069687 800.95987171267 546.8389444180397 794.8516410684442 549.7024453350255 788.7434104242185 552.5659462520114 781.3092415039382 554.3028060426689 773.8750725836579 556.0396658333265 765.9539621016143 558.1829227962038 758.0328516195705 560.3261797590811 749.7256101505063 562.7906815033759 741.4183686814422 565.2551832476709 735.019525930011 566.2318199504796 728.62068317858 567.2084566532882 721.7342694384472 568.9583066669564 714.8478556983144 570.7081566806247 706.8857030115632 572.1200640429079 698.9235503248121 573.5319714051911 690.9429014470667 574.904987470857 682.9622525693212 576.2780035365229 675.0494787544432 576.3696023273708 667.1367049395651 576.4612011182186 659.2369970042439 577.254829094552 651.3372890689226 578.0484570708853 641.940409387429 578.5952640879827 632.5435297059354 579.1420711050802 624.7841436784342 579.1475811473812 617.0247576509331 579.1530911896822 609.7085293028771 579.1188498819893 602.392300954821 579.0846085742963 595.2472794410031 579.1482626739573 588.1022579271852 579.2119167736182 580.9916336043672 579.7766557858008 573.8810092815492 580.3413947979834 566.5669212949979 580.3638096617208 559.2528333084466 580.3862245254581 551.8388555236991 580.3250544753603 544.4248777389515 580.2638844252623 537.603988338827 579.600922587339 530.7830989387024 578.9379607494159 523.4100668926975 577.3205868106415 516.0370348466926 575.7032128718671 508.092800053201 572.3562302362617 500.1485652597094 569.0092476006563 493.7196924043152 565.7110118104179 487.290819548921 562.4127760201793 481.3993960574643 557.1293681601956 475.5079725660076 551.8459603002117 471.44460547733945 545.7582660906744 467.3812383886713 539.6705718811372 464.93262514862204 533.6779049067715 462.48401190857277 527.6852379324057 460.80613090871054 517.9889884865188 459.1282499088483 508.2927390406319 457.94853876549985 501.99335461680516 456.7688276221513 495.69397019297844 454.8102415042854 487.26559758456006 452.8516553864195 478.8372249761416 449.6426780547398 468.67995232090755 446.43370072306016 458.52267966567354 443.75151983588376 448.34673349736715 441.0693389487073 438.1707873290607 439.03414863035687 431.3663944580724 436.9989583120065 424.5620015870841 434.84425878197004 416.3352468315378 432.6895592519336 408.10849207599153 430.756063430567 400.80562353610867 428.8225676092004 393.50275499622575 427.4637827837911 387.34571057224457 426.1049979583818 381.1886661482634 424.46558460329345 374.9333103907479 422.8261712482052 368.67795463323245 420.5145146714989 361.5135964573799 418.20285809479253 354.34923828152733 416.92560665532534 348.19870018079575 415.64835521585815 342.0481620800641 414.4497308345185 335.52639124198913 413.25110645317886 329.0046204039142 413.3885422192427 322.2867355417548 413.52597798530655 315.5688506795954 413.7369316065072 308.76036003703564 413.94788522770784 301.9518693944759 414.6562682851538 293.92283053070173 415.36465134259976 285.8937916669276 416.58909204566453 279.52056506064076 417.81353274872924 273.1473384543539 418.89656898164526 266.68684668301785 419.9796052145613 260.2263549116817 421.0045512167852 252.69808293047657 422.0294972190091 245.1698109492714 422.82009199588026 239.55160784977733 423.6106867727514 233.93340475028322 424.0260367547128 232.38905695667535 424.4413867366742 230.84470916306748 425.2142647909084 229.4446430116232 425.9871428451426 228.04457686017895 427.0726292628241 226.8701642614021 428.1581156805056 225.69575166262524 429.4931219400373 224.81524953193622 430.8281281995691 223.9347474012472 432.3350636744221 223.39933056385186 433.84199914927507 222.86391372645653 435.43328067884784 222.7047006341008 437.02456220842055 222.54548754174502 438.6077044354482 222.77173166683713 440.19084666247585 222.99797579192926 441.67383728634 223.59652781528888 443.15682791020413 224.1950798386485 444.4534754461678 225.1311518885551 445.75012298213136 226.0672239384617 446.7850662144815 227.28641146339356 447.8200094468316 228.5055989883254 448.5330974262775 229.93704275205022 449.2461854057234 231.368486515775 449.5959734253953 232.92899093948895 449.94576144506726 234.4894953632029 449.91191980882724 236.08836385647976 449.8780781725872 237.6872323497566 449.87817201827727 237.6865756649711 Z" fill="url(#dddraw-gradient)"></path><path d="M 268.9884792074906 271.83442206479793 Q 268.9884792074906 271.83442206479793 270.66737451128074 274.1908869321374 272.34626981507085 276.54735179947687 276.295879728046 282.4212309648476 280.2454896410211 288.29511013021835 275.777438477136 289.2731879736705 271.3093873132509 290.25126581712266 268.7168875626378 290.43974070469153 266.1243878120247 290.6282155922604 263.60742359786565 289.97900924230987 261.0904593837066 289.3298028923594 258.91255752363816 287.9108873811032 256.73465566356975 286.4919718698469 255.1238430572513 284.45190802587075 253.51303045093286 282.4118441818946 252.6379596034592 279.9642272281874 251.7628887559855 277.5166102744802 251.71517981608338 274.91770635220325 251.66747087618123 272.3188024299263 252.4521189824523 269.84071746578593 253.2367670887234 267.3626325016456 254.77161937731415 265.2648226455383 256.3064716659049 263.167012789431 258.4308286970382 261.6691192870592 260.55518572817147 260.17122578468735 263.0466267599119 259.43007848115485 265.5380677916523 258.6889311776223 268.13573829029997 258.7821283912528 270.7334087889477 258.8753256048833 273.1653319675759 259.79310956280807 275.59725514620413 260.71089352073284 277.60880800604514 262.3571720002857 279.6203608658861 264.0034504798386 281.00093329151605 266.205857689635 282.381505717146 268.40826489943146 282.9865514111658 270.9362082232268 283.5915971051856 273.4641515470221 283.3577676237148 276.05295465150266 283.12393814224396 278.64175775598324 282.07571549371755 281.0203722727323 281.02749284519115 283.3989867894814 279.27462621761373 285.3183711507021 277.5217595900363 287.2377555119228 275.2477745820271 288.49694966832703 272.9737895740179 289.7561438247313 270.41677301618927 290.22330981574856 267.8597564583606 290.69047580676585 265.28742865930394 290.3167012298169 262.7151008602472 289.94292665286787 260.3967852195524 288.76734580482605 258.07846957885755 287.5917649567842 256.25689435608115 285.73746146276267 254.43531913330477 283.88315796874116 253.3012037351207 281.54427789405264 252.16708833693664 279.2053978193641 251.83917494491214 276.6268225252328 251.51126155288767 274.0482472311015 252.02388278572846 271.49995423150085 252.53650401856922 268.9516612319002 253.83598829787798 266.70045747657224 255.13547257718673 264.4492537212443 257.0857635558893 262.73084083763206 259.03605453459187 261.0124279540198 261.4329562323913 260.00672422465436 263.8298579301907 259.00102049528897 263.82751416177405 259.00158145999694 263.8251703933573 259.00214242470486 272.78715310836776 258.3477094766463 281.7491358233782 257.69327652858766 288.0240422920366 258.55860730033703 294.298948760695 259.42393807208646 299.96762714370664 264.4930210749434 305.63630552671833 269.56210407780037 306.93592258338856 277.3032654573757 308.23553964005873 285.04442683695106 306.53923789331725 291.25180160685966 304.8429361465758 297.4591763767683 300.17257817786765 302.32367582746485 295.5022202091594 307.18817527816134 289.13326794620906 310.2960586864692 282.7643156832587 313.40394209477705 273.5704864340137 313.2933625194632 264.37665718476865 313.1827829441493 260.83715347141293 307.9496825722134 257.2976497580572 302.71658220027746 253.82800320391505 296.9631827052831 250.35835664977287 291.2097832102888 248.82800512739112 288.7523778383704 247.29765360500934 286.29497246645207 246.59005152341643 284.8921373973748 245.88244944182355 283.4893023282976 245.53114117724817 281.9578881321545 245.17983291267282 280.42647393601135 245.20523651795827 278.8554864778354 245.23064012324375 277.2844990196595 245.63127913965724 275.76524416433244 246.03191815607073 274.24598930900544 246.78450742515435 272.86676622010077 247.537096694238 271.4875431311961 248.59789569231236 270.32851231944346 249.65869469038674 269.1694815076908 250.96604972984235 268.2980058983261 252.27340476929797 267.42653028896143 253.75133231381585 266.89326008534704 255.2292598583337 266.35998988173264 256.7918626895863 266.1959187731582 258.35446552083897 266.0318476645838 259.9109250888554 266.2465114715885 261.46738465687173 266.46117527859326 262.92723945842886 267.04209773062814 264.387094259986 267.62302018266297 265.66549746542637 268.53643803952116 266.9439006708667 269.4498558963793 267.9665514258246 270.64268126930347 268.98920218078246 271.83550664222764 268.98884069413657 271.83496435351276 Z" fill="url(#dddraw-gradient)"></path><path d="M 508.6693359339745 326.86936836396916 Q 508.6693359339745 326.86936836396916 511.3875601217187 333.32726146393077 514.1057843094629 339.78515456389243 516.5429649345181 345.90411914389983 518.9801455595732 352.02308372390723 523.0051635322625 360.91284629794063 527.0301815049518 369.8026088719741 529.7752273140638 378.76929251345643 532.5202731231759 387.73597615493884 534.4829445139065 394.34880426897615 536.4456159046372 400.96163238301347 539.2985742674693 408.6653626406396 542.1515326303016 416.3690928982658 544.5977341498567 422.1612952430464 547.0439356694118 427.953497587827 549.8096911711507 434.64827214424565 552.5754466728895 441.3430467006644 554.4844076183379 448.10074834821626 556.3933685637862 454.85844999576807 556.6659895765802 461.32677807142977 556.9386105893742 467.7951061470914 556.6438601015011 468.0648765310558 556.3491096136279 468.33464691502013 557.8647842755842 469.52410574663946 559.3804589375404 470.7135645782588 560.5674230439799 472.23119371709265 561.7543871504196 473.74882285592656 562.5436542917068 475.50641762512043 563.3329214329942 477.2640123943143 563.6786193657941 479.1594213033024 564.024317298594 481.0548302122905 563.9063540428097 482.97789200622697 563.7883907870254 484.90095380016345 563.2136223726254 486.7399000372301 562.6388539582254 488.5788462742968 561.64068595246 490.22679731279277 560.6425179466946 491.87474835128876 559.2789639209578 493.23592519942804 557.915409895221 494.5971020475673 556.2657196735548 495.59239304298137 554.6160294518886 496.5876840383955 552.7760831074866 497.15924282166736 550.9361367630846 497.7308016049393 549.012872063933 497.84540915273067 547.0896073647814 497.96001670052203 545.194804545559 497.6110120167704 543.3000017263366 497.2620073330188 541.5437868159237 496.46967458634174 539.7875719055107 495.67734183966473 536.7686435927171 485.4352746889479 533.7497152799234 475.1932075382311 529.3688718936526 468.9844766598918 524.9880285073817 462.7757457815525 523.102896460445 455.5180121871066 521.2177644135082 448.26027859266065 518.5831794335327 441.2062130853372 515.9485944535571 434.15214757801374 513.4942987121542 427.3954443791264 511.0400029707513 420.638741180239 507.68605868193197 412.34892010999187 504.33211439311265 404.05909903974475 502.1124239862876 398.0778448388843 499.89273357946246 392.0965906380239 497.219799125382 385.18248410030975 494.5468646713015 378.2683775625956 492.6656009071694 371.3944809287003 490.78433714303736 364.520584294805 488.98407610322147 357.78329719180357 487.18381506340563 351.0460100888021 486.82272857359055 343.9447779770156 486.4616420837755 336.84354586522903 486.44980917607717 330.4321659188236 486.43797626837886 324.0207859724182 487.4806227701538 317.11221658266516 488.5232692719287 310.2036471929121 491.5416293054493 304.1775471118244 494.55998933896984 298.1514470307367 499.13074187612085 292.47234113630964 503.7014944132718 286.79323524188254 509.8820726270863 282.73063769038487 516.0626508409008 278.6680401388872 523.5874164800855 276.59540677962156 531.1121821192701 274.5227734203559 538.4676107248464 273.6957871683525 545.8230393304227 272.86880091634913 555.8277038081433 275.1052161418296 565.8323682858637 277.3416313673101 571.0069343953622 281.63262653748336 576.1815005048608 285.9236217076566 579.7184846861305 293.1267253991506 583.2554688674002 300.32982909064464 584.3100736431757 307.55072254441757 585.3646784189511 314.77161599819055 585.3970980153948 321.49246119330445 585.4295176118385 328.21330638841835 583.0291531058136 336.3743067904767 580.6287885997888 344.5353071925351 577.0171511250645 349.8425769646609 573.4055136503403 355.1498467367867 566.3563983006245 360.13460272874056 559.3072829509086 365.11935872069444 551.5810109408699 367.6952786515852 543.8547389308312 370.271198582476 539.3619563728817 371.1449809650728 534.8691738149321 372.01876334766956 532.0291687908789 371.6871833331913 529.1891637668258 371.355603318713 526.6037106371871 370.13453577058556 524.0182575075484 368.91346822245816 521.9580538974906 366.9307592353011 519.8978502874328 364.948050248144 518.5786000587699 362.4112899762969 517.259349830107 359.87452970444986 516.8191788300284 357.04931761801487 516.3790078299497 354.2241055315799 516.8640020783573 351.4062420817903 517.3489963267649 348.5883786320007 518.7083767978245 346.07289486589315 520.067757268884 343.5574110997856 522.159196468434 341.60767883169484 524.2506356679839 339.65794656360407 526.8551593597451 338.47810327667844 529.4596830515062 337.29825998975286 532.3045969174237 337.0118355875819 535.1495107833413 336.725411185411 537.9369515906692 337.36239437851077 540.7243923979971 337.9993775716106 543.1625143583954 339.49307605151625 545.6006363187936 340.9867745314219 547.4341674194068 343.18079767298923 549.2676985200198 345.37482081455653 550.3046675706084 348.0394538156976 551.3416366211972 350.7040868168386 551.4734726884315 353.5603418989391 551.6053087556658 356.41659698103956 550.8182085685048 359.16542348302545 550.031108381344 361.91424998501134 548.407481537158 364.26784504650493 546.783854692972 366.6214401079986 544.493695350943 368.3333817047728 542.203536008914 370.0453233015471 539.4866244566958 370.93637069651106 536.7697129044777 371.82741809147495 533.9105104987825 371.8042783871622 531.0513080930874 371.78113868284936 528.3491740805478 370.84623461240966 525.6470400680081 369.91133054196996 523.3848885930308 368.16254680836914 521.1227371180536 366.41376307476827 519.5374160372189 364.03419779654837 517.9520949563843 361.65463251832847 517.2095878053397 358.89342680826337 516.467080654295 356.1322210981982 516.6451281277577 353.2784739230192 516.8231756012206 350.42472674784017 517.903136081719 347.77722619010467 518.9830965622175 345.1297256323691 520.8518979023618 342.9656656993442 522.7206992425059 340.8016057663193 525.1826774486672 339.3475641042491 527.6446556548284 337.8935224421789 530.4420409589223 337.30173759691183 533.2394262630163 336.7099527516448 533.2367781022017 336.71007498271206 533.2341299413872 336.7101972137794 533.472910798999 336.82487037574913 533.7116916566107 336.9395435377189 539.887738197002 335.36949776400485 546.0637847373933 333.7994519902908 548.2339640329888 327.47721042228306 550.4041433285842 321.1549688542754 552.2085228142033 314.93395114799824 554.0129022998225 308.7129334417211 547.7741165968584 307.9364676195202 541.5353308938943 307.16000179731935 533.3686193427272 310.55782512602445 525.2019077915603 313.9556484547296 523.1038170161883 321.89947614473914 521.0057262408162 329.84330383474867 520.8278282997599 336.77058820900476 520.6499303587035 343.69787258326085 522.6141759508248 351.01127574709284 524.5784215429462 358.32467891092483 526.5447191238752 365.05403282428665 528.5110167048041 371.78338673764847 530.633562929761 378.063599822126 532.7561091547178 384.3438129066035 535.4863893862421 392.0691321213108 538.2166696177662 399.79445133601814 540.629779863531 405.7051731038978 543.0428901092957 411.61589487177747 546.5843288474216 420.75602049079856 550.1257675855475 429.89614610981965 551.4139809980879 436.094563094548 552.7021944106285 442.29298007927633 555.5176269437866 449.50279177267396 558.3330594769446 456.71260346607164 560.1370974503599 464.00723952427325 561.9411354237751 471.3018755824748 562.3380031745485 479.704350689651 562.7348709253218 488.1068257968272 559.5413066607007 478.22032238583944 556.3477423960796 468.3338189748517 557.8635359963405 469.5231262330578 559.3793295966013 470.7124334912639 560.5664454600197 472.22994392609917 561.7535613234381 473.74745436093446 562.5430042202557 475.50497019462637 563.3324471170733 477.2624860283182 563.6783345890353 479.15786035803603 564.0242220609974 481.05323468775384 563.9064511119819 482.9763082684006 563.7886801629664 484.89938184904736 563.2140956460637 486.7383855537606 562.639511129161 488.5773892584739 561.64150792349 490.22544010553054 560.6435047178192 491.8734909525872 559.2800868165846 493.23480414932294 557.9166689153501 494.59611734605863 556.2670782310317 495.5915733055182 554.6174875467134 496.58702926497773 552.7775983673894 497.15877204002595 550.9377091880654 497.7305148150742 549.0144559592848 497.8453146887621 547.0912027305043 497.96011456245003 545.1963650202877 497.61129936072507 543.3015273100709 497.26248415900005 541.5452331751645 496.4703270377754 539.7889390402581 495.6781699165508 538.9073117838043 494.3259557594565 538.0256845273506 492.9737416023622 534.9495020375924 486.93272566850146 531.8733195478343 480.8917097346407 530.5277387425069 471.46181036888544 529.1821579371795 462.0319110031302 525.8350172045311 453.41382336899636 522.4878764718827 444.79573573486255 520.4662890579597 438.84741049382603 518.4447016440366 432.8990852527895 515.8985590736631 425.1270344511772 513.3524165032898 417.354983649565 511.1316470735392 409.94726890797153 508.9108776437887 402.5395541663781 506.8016187320999 394.84611773601944 504.692359820411 387.1526813056608 502.29919413694677 379.5404262827474 499.9060284534826 371.928171259834 495.2596817033575 360.99547075031455 490.6133349532325 350.0627702407951 487.71537719517585 343.6836760360692 484.81741943711927 337.30458183134334 484.3663567552535 335.8016910978156 483.91529407338777 334.29880036428784 483.8370158026538 332.7316339365507 483.75873753191985 331.1644675088136 484.0577932090906 329.6241091732801 484.35684888626145 328.08375083774666 485.0158573813288 326.65972629325154 485.6748658763961 325.2357017487564 486.6555255846632 324.01077536873316 487.6361852929304 322.7858489887099 488.8815002260768 321.8312135519184 490.12681515922316 320.8765781151269 491.56440755482345 320.2477170780068 493.0019999504237 319.6188560408867 494.5483168709006 319.35231883646236 496.0946337913775 319.08578163203805 497.65980322465947 319.19705941515383 499.22497265794146 319.3083371982696 500.71802688302705 319.7909624989424 502.2110811081127 320.2735877996152 503.545243743289 321.0995104126939 504.8794063784654 321.9254330257726 505.97713582869073 323.0466502901792 507.07486527891604 324.1678675545858 507.8723614569666 325.51921427023296 508.6698576350172 326.87056098588005 508.66959678449587 326.86996467492463 Z" fill="url(#dddraw-gradient)"></path><path d="M 622.8922693815497 327.9010314941406 Q 622.8922693815497 327.9010314941406 622.9156342639171 333.1160488128662 622.9389991462845 338.3310661315918 623.2101573417502 345.4949908758663 623.481315537216 352.6589156201407 623.6857901369023 359.4719102014284 623.8902647365885 366.2849047827161 626.2746648197021 373.2553925430659 628.6590649028158 380.2258803034157 630.6177988444643 387.7026495277035 632.5765327861129 395.1794187519913 634.2671655490076 401.85756493371264 635.9577983119023 408.535711115434 638.7317599967962 414.94766623018654 641.5057216816901 421.359621344939 648.5230486231555 420.1272241973819 655.5403755646211 418.89482704982476 659.3121407481445 418.75113659967496 663.083905931668 418.60744614952523 665.7579147288694 419.0348644311856 668.4319235260708 419.46228271284593 670.8294681083555 420.72116690567907 673.2270126906402 421.98005109851215 675.0970695073527 423.9385956952152 676.9671263240652 425.8971402919183 678.1138999328488 428.35028515621093 679.2606735416323 430.8034300205036 679.5640964429283 433.49433023752704 679.8675193442243 436.18523045455055 679.2958230801712 438.83214806125375 678.7241268161182 441.479065667957 677.3371681364756 443.8048676921998 675.950209456833 446.13066971644264 673.893203301481 447.8918440723346 671.8361971461289 449.65301842822663 669.3245126025297 450.66516969580107 666.8128280589304 451.67732096337556 664.1094391618192 451.83447663773546 661.406050264708 451.99163231209536 658.7940025452376 451.27733815265015 656.1819548257673 450.5630439932049 653.93473036968 449.05208678700376 651.6875059135928 447.54112958080265 650.0403897146505 445.3917069461889 648.3932735157083 443.24228431157513 647.5187190747367 440.67944136578524 646.6441646337653 438.1165984199954 646.6337380315942 435.4086654959784 646.6233114294232 432.7007325719615 647.4781043340522 430.1312309616869 648.3328972386813 427.56172935141234 649.9634126073523 425.3996865517584 651.5939279760233 423.2376437521045 653.8294504192222 421.70942621491884 656.0649728624212 420.18120867773325 658.6714425902245 419.4468211825695 661.2779123180278 418.7124336874058 663.9824312618932 418.848766798867 666.6869502057586 418.9850999103283 669.2063545183399 419.9778795156561 671.7257588309212 420.9706591209839 673.7962662156328 422.7159409334321 675.8667736003445 424.4612227458803 677.2716013874463 426.77627529897586 678.676429174548 429.09132785207146 679.268491523892 431.7337645323908 679.860553873236 434.37620121271016 679.5778617005565 437.0693582022883 679.295169527877 439.76251519186644 678.167320778277 442.2244182429701 677.0394720286771 444.68632129407376 675.184552763963 446.6592085073732 673.3296334992489 448.6320957206726 670.9418542560873 449.90940528414365 668.5540750129258 451.18671484761467 665.8834369083881 451.6347121127849 663.2127988038507 452.08270937795515 663.2153094486116 452.0826997109897 663.2178200933726 452.08269004402416 661.6563757095778 451.93870913448194 660.0949313257831 451.7947282249397 651.8241710845598 453.193542366302 643.5534108433365 454.59235650766425 636.9900833924585 453.47621172106767 630.4267559415806 452.36006693447104 624.6832176485955 449.08429310914585 618.9396793556102 445.80851928382066 616.2317538506366 439.5825303276764 613.523828345663 433.3565413715321 609.6152005816368 424.39489006369865 605.7065728176107 415.4332387558652 603.9398756786227 408.15419028209146 602.1731785396346 400.87514180831766 601.1087991507916 391.22651702161 600.0444197619485 381.5778922349023 597.8416649150238 374.589591577615 595.638910068099 367.60129092032764 595.8433846677852 360.13010327023414 596.0478592674715 352.6589156201407 596.3190174629373 345.4949908758663 596.590175658403 338.3310661315918 596.6135405407704 333.1160488128662 596.6369054231378 327.9010314941406 596.8276507964961 326.330152503577 597.0183961698543 324.75927351301334 597.5795461598673 323.2796940831887 598.1406961498802 321.80011465336406 599.039636692763 320.49782801025754 599.9385772356457 319.195541367151 601.1230618648092 318.1462364716477 602.3075464939726 317.09693157614436 603.7087329071171 316.36159407807224 605.1099193202616 315.6262565800001 606.6463704972208 315.24762432929674 608.18282167418 314.86899207859346 609.7652390003591 314.8690711994599 611.3476563265381 314.86915032032624 612.8840696325899 315.2479362142538 614.4204829386418 315.62672210818135 615.8215958110308 316.3621997212179 617.2227086834197 317.09767733425446 618.4070883761714 318.147100672974 619.5914680689231 319.1965240116935 620.490278378647 320.4989005423427 621.3890886883709 321.8012770729919 621.9500907176354 323.28091261041754 622.5110927468999 324.7605481478432 622.7016810314055 326.3314462050898 622.8922693159112 327.9023442623363 622.8922693487305 327.9016878782385 Z" fill="url(#dddraw-gradient)"></path><path d="M 696.3838840742198 305.0330216968031 Q 696.3838840742198 305.0330216968031 698.2027959544778 312.70454699675946 700.0217078347356 320.37607229671585 702.1228996658999 327.8165343722344 704.2240914970644 335.256996447753 705.3699534718246 341.7771334251645 706.515815446585 348.29727040257603 709.4294587094147 355.06416383113924 712.3431019722444 361.83105725970245 714.0224651108392 367.85563785132496 715.7018282494339 373.88021844294747 717.8792368257024 380.29412178721225 720.0566454019709 386.7080251314771 722.2664821857345 392.9868813453138 724.4763189694982 399.26573755915047 726.7650318084442 405.6032609423248 729.0537446473902 411.9407843254992 730.8481311068556 418.48627123938104 732.6425175663209 425.03175815326284 734.9543966377125 431.90154781199726 737.2662757091042 438.7713374707317 738.1210545897668 444.05532029323825 738.9758334704293 449.3393031157448 738.7776170243919 451.2821673104356 738.5794005783547 453.2250315051265 737.9219719607052 455.06399823978666 737.2645433430555 456.90296497444683 736.1861123359406 458.5311534160544 735.1076813288258 460.15934185766196 733.6709263930491 461.48212161749063 732.2341714572723 462.80490137731925 730.5225968572065 463.7453924335772 728.8110222571408 464.6858834898352 726.92410478896 465.1894244581439 725.0371873207791 465.69296542645264 723.0845947163903 465.73029048207536 721.1320021120015 465.767615537698 719.2272191453138 465.3365553466481 717.3224361786262 464.90549515559815 715.5761689251595 464.03110295643273 713.8299016716929 463.1567107572674 712.3436432662668 461.88980626568514 710.8573848608405 460.6229017741029 709.7175167118096 459.0371175386798 708.5776485627788 457.4513333032568 707.8504198605215 455.63883517826343 707.1231911582643 453.82633705327004 706.8508684691244 451.8924675148909 706.5785457799846 449.95859797651167 704.6768002314864 441.6386275331665 702.7750546829883 433.31865708982144 702.4969544858286 426.6543609926208 702.218854288669 419.9900648954202 700.2544071623017 410.5716038699976 698.2899600359343 401.15314284457503 695.1275679864852 392.8983556042391 691.9651759370363 384.6435683639031 688.5143824617223 377.7197473063971 685.0635889864083 370.7959262488911 683.1514910511876 363.7132287106774 681.239393115967 356.6305311724637 679.0036226720542 350.765173757041 676.7678522281414 344.89981634161825 675.2359680611726 337.5393035731313 673.7040838942039 330.17879080464434 673.6340484849279 323.3614464583917 673.5640130756519 316.54410211213906 674.8981867562343 309.7971152287769 676.2323604368167 303.05012834541463 682.2403284627419 294.78532199417896 688.248296488667 286.5205156429432 695.5278829109211 282.344235944322 702.8074693331752 278.1679562457008 709.059832637059 276.9631879196636 715.3121959409428 275.75841959362646 724.6509880615247 276.6042111412288 733.9897801821065 277.4500026888311 739.4348675372862 281.17798063479574 744.879954892466 284.9059585807604 749.5430410700477 289.54714004134746 754.2061272476294 294.1883215019346 758.304666450595 301.0851967958452 762.4032056535606 307.98207208975583 763.9055278872745 314.4249291754928 765.4078501209883 320.8677862612298 764.5250998920395 327.9246190451868 763.6423496630907 334.9814518291437 760.1093713662619 341.9615555280478 756.576393069433 348.9416592269519 750.7186362693905 352.8556503089777 744.8608794693479 356.7696413910036 738.0799550332055 358.8241380697384 731.299030597063 360.8786347484733 724.780312434166 361.6184837412149 718.2615942712689 362.3583327339565 718.0603109248518 362.5085022644147 717.8590275784346 362.6586717948729 715.0227322256738 363.08824665576003 712.1864368729131 363.51782151664725 709.3614538345871 363.0192468257842 706.5364707962611 362.52067213492114 704.0185765422059 361.1461487940521 701.5006822881505 359.77162545318305 699.5535010114249 357.66506641893596 697.6063197346994 355.5585073846889 696.4337218289827 352.940469944027 695.2611239232659 350.3224325033651 694.9858806988225 347.4670258674205 694.7106374743789 344.6116192314759 695.361566969465 341.8178052287861 696.012496464551 339.02399122609626 697.5214461892024 336.58428292023814 699.0303959138539 334.1445746143801 701.2393784335757 332.3144101089975 703.4483609532974 330.4842456036149 706.1260952151599 329.4552436055379 708.8038294770223 328.42624160746084 711.6699559969553 328.30613889751817 714.5360825168883 328.1860361875755 717.2905170916708 328.9874075512023 720.0449516664534 329.78877891482904 722.3993042690057 331.42772055871194 724.7536568715581 333.0666622025949 726.4614261629042 335.3715765039809 728.1691954542503 337.67649080536694 729.0515775387789 340.40605262846265 729.9339596233076 343.13561445155835 729.8985688638425 346.00403795295125 729.8631781043772 348.87246145434415 728.9137199227764 351.57942193624814 727.9642617411756 354.28638241815213 726.2001446596855 356.5484604035437 724.4360275781953 358.8105383889353 722.0419551209295 360.3908937156134 719.6478826636637 361.9712490422915 716.8745148488717 362.7044180903796 714.1011470340796 363.4375871384677 711.2388562040683 363.2468069150931 708.3765653740568 363.05602669171856 705.7250341342994 361.9612719366297 703.0735028945421 360.8665171815409 700.9103472657778 358.9824090065829 698.7471916370134 357.09830083162484 697.2988945845914 354.6221058600719 695.8505975321692 352.1459108885189 695.2687961397912 349.33688738754466 694.6869947474133 346.5278638865704 695.0326037744421 343.680117358237 695.378212801471 340.83237082990365 696.6150468915448 338.2440610874597 697.8518809816185 335.65575134501586 699.8504432790139 333.5978751017427 701.8490055764094 331.5399988584695 704.40004608102 330.22801630026436 706.9510865856307 328.91603374205926 706.9485558877577 328.91685183763985 706.9460251898848 328.91766993322045 711.8878062210186 327.92090148411626 716.8295872521525 326.924133035012 723.5809079769986 327.997592467714 730.3322287018447 329.071051900416 729.565252692812 322.7922259497682 728.7982766837795 316.5133999991204 723.2275983757949 313.14555553305763 717.6569200678102 309.7777110669948 712.7329953461569 313.96345451043703 707.8090706245038 318.1491979538792 707.6986056107664 325.1351471638434 707.5881405970292 332.12109637380763 709.605728412921 338.343327778188 711.6233162288129 344.56555918256834 714.7450158251675 353.1089326044586 717.866715421522 361.65230602634887 720.4457722130803 368.1224592841472 723.0248290046385 374.5926125419456 726.1360198604544 382.7777769293593 729.2472107162704 390.96294131677297 730.7857608957107 398.0304069927558 732.3243110751511 405.0978726687386 733.6816366278069 412.21967493902156 735.0389621804627 419.3414772093045 735.6908509939924 426.83698356967597 736.342739807522 434.3324899300474 737.659271075611 441.8350865922555 738.9758023436999 449.3376832544635 738.7777801850729 451.28056726108457 738.5797580264458 453.2234512677057 737.9225133087566 455.0624837360327 737.2652685910673 456.90151620435967 736.1870004081884 458.5298124809268 735.1087322253096 460.158108757494 733.6721095746924 461.4810321862021 732.2354869240752 462.8039556149102 730.5240063816727 463.7446178239254 728.8125258392704 464.6852800329406 726.9256587346209 465.1890096904782 725.0387916299715 465.6927393480157 723.0862027678511 465.7302596627119 721.1336139057307 465.767779977408 719.228787842548 465.33691026680975 717.3239617793653 464.9060405562115 715.5776070954101 464.0318229881431 713.831252411455 463.15760542007473 712.3448673230112 461.89084956066733 710.8584822345673 460.6240937012599 709.7184555128126 459.0384234605805 708.5784287910578 457.452753219901 707.8510188426244 455.64032782684023 707.1236088941911 453.82790243377946 706.8510928194594 451.8940601373385 706.5785767447276 449.96021784089754 705.7391293637548 443.7998879460122 704.8996819827821 437.6395580511268 703.1817584081355 431.1440949580714 701.4638348334887 424.648631865016 699.1261448868504 418.0031998742324 696.7884549402121 411.3577678834488 694.8277002163018 405.0210354482364 692.8669454923913 398.6843030130239 690.7491803941576 391.37307178758425 688.631415295924 384.0618405621446 686.8002207478773 376.54134569045686 684.9690261998309 369.0208508187691 682.9476297844908 362.9407944733217 680.9262333691506 356.8607381278744 680.1134888580631 349.94249809979203 679.3007443469755 343.02425807170965 677.3678126286786 334.934483359909 675.4348809103816 326.8447086481084 673.2422342579246 319.2723290713558 671.0495876054677 311.6999494946032 670.8347539059843 310.1357434237801 670.6199202065009 308.571537352957 670.785680276998 307.00137247325097 670.9514403474952 305.43120759354497 671.4881602048874 303.94634196153834 672.0248800622797 302.46147632953176 672.9013655232377 301.14821040552295 673.7778509841957 299.8349444815141 674.943160672547 298.76960534271 676.1084703608984 297.7042662039059 677.4948764228044 296.9487714111085 678.8812824847104 296.19327661831113 680.4082069347129 295.79153556437467 681.9351313847154 295.3897945104382 683.5138293020382 295.36515640429315 685.0925272193608 295.3405182981481 686.6312446068741 295.69441510768115 688.1699619943874 296.0483119172143 689.5792685252327 296.76017514322774 690.988575056078 297.4720383692412 692.1865617684666 298.50049448759233 693.3845484808552 299.52895060594346 694.3015883307759 300.8142256987119 695.2186281806966 302.09950079148035 695.801422768985 303.56689460988605 696.3842173572734 305.0342884282917 696.3840507157466 305.0336550625474 Z" fill="url(#dddraw-gradient)"></path><path d="M 477.1894912763918 27.342826961349058 Q 477.1894912763918 27.342826961349058 481.5477519777543 32.20413586907972 485.9060126791167 37.06544477681038 491.3131937014839 41.92981808251551 496.720374723851 46.794191388220646 501.33506888298655 52.17968527892442 505.94976304212213 57.56517916962819 512.5762839017617 65.35378169149186 519.2028047614014 73.14238421335553 524.8214589289755 80.57515003198438 530.4401130965496 88.00791585061324 535.2844044302637 94.98859149041536 540.1286957639778 101.96926713021746 544.0533592223916 109.16268373424631 547.9780226808053 116.35610033827518 550.1328612807481 122.8953370197081 552.2876998806909 129.434573701141 555.002933317672 135.40409657950278 557.7181667546532 141.37361945786452 560.9866759795316 148.7939778339848 564.25518520441 156.21433621010505 554.6000490591903 154.3639461139262 544.9449129139706 152.51355601774733 546.9905832104214 144.1047221106324 549.0362535068721 135.69588820351746 553.7006039496245 128.3837578384063 558.3649543923768 121.07162747329514 562.9992549609399 114.49054331583882 567.633555529503 107.9094591583825 572.5093298164024 101.73472641519282 577.385104103302 95.55999367200313 582.2985050982318 89.89216813721973 587.2119060931615 84.22434260243634 593.3990052456229 79.14592542112344 599.5861043980844 74.06750823981054 605.1602748141424 69.17403812450664 610.7344452302003 64.28056800920274 616.5310344628713 59.18258015956603 622.3276236955423 54.08459230992932 628.0792461054978 48.21831649928084 633.8308685154532 42.35204068863236 639.0638106475967 38.57639347097118 644.2967527797402 34.80074625331002 650.2545415720475 31.794021117994575 656.2123303643548 28.78729598267913 662.4217118007452 25.6469480820502 668.6310932371358 22.506600181421273 674.7573393799057 19.43378761101446 680.8835855226756 16.36097504060765 686.6583592069087 12.726927769907098 692.4331328911419 9.092880499206547 695.5338750632823 8.523148505416529 698.6346172354226 7.953416511626511 700.7268871937035 7.935807297630264 702.8191571519843 7.918198083634017 704.8548399883894 8.40182919544098 706.8905228247945 8.885460307247943 708.7513045572259 9.842223081916586 710.6120862896572 10.798985856585228 712.1898181963975 12.173273196698503 713.7675501031379 13.547560536811776 714.9705343316379 15.259498797591686 716.1735185601378 16.971437058371595 716.9318376105152 18.921528307666534 717.6901566608926 20.871619556961477 717.95973699431 22.946524399737783 718.2293173277274 25.021429242514085 717.9944909225403 27.100554111820607 717.7596645173531 29.179678981127132 717.0340794952643 31.142185041872516 716.3084944731755 33.1046911026179 715.1343218697602 34.836517410343674 713.9601492663451 36.56834371806944 712.4056320484822 37.96883644640107 710.8511148306193 39.3693291747327 709.0066016120496 40.35709162049768 707.16208839348 41.344854066262656 705.1347823691308 41.862477429703304 703.1074763447816 42.38010079314395 702.1035481238307 34.35326537214809 701.0996199028799 26.326429951152225 700.8013181453994 34.985801410796284 700.5030163879188 43.64517287044035 697.262873876617 35.75284425790439 694.0227313653153 27.860515645368434 691.545171528167 21.726021163944992 689.0676116910188 15.59152668252155 692.5471912485139 21.503247225023443 696.026770806009 27.414967767525336 693.4939626012075 24.581953994982154 690.961154396406 21.74894022243897 693.534332403485 23.061388139875238 696.1075104105641 24.373836057311504 698.1269027147753 26.439222053630587 700.1462950189865 28.504608049949667 701.4004707130111 31.106685666128 702.6546464070357 33.708763282306336 703.0122929646391 36.57509430504827 703.3699395222425 39.441425327790206 702.7936112544339 42.271904142376755 702.2172829866255 45.102382956963304 700.7673216151807 47.60065768433341 699.3173602437358 50.09893241170353 697.1455771069975 52.003433028421064 694.9737939702593 53.9079336451386 692.3075753359391 55.0192584338939 689.6413567016189 56.13058322264921 686.7598563645433 56.33237618469834 683.8783560274679 56.53416914674747 681.0832678335713 55.80530250569573 678.2881796396747 55.07643586464398 675.8721500606895 53.49322215021158 673.4561204817043 51.910008435779176 671.6721084523201 49.63821054179502 669.8880964229359 47.36641264781087 668.9228884735626 44.6438884134715 667.9576805241894 41.92136417913214 667.9123341819168 39.03316261044951 667.866987839644 36.14496104176687 668.7462508784781 33.39347760539319 669.6255139173122 30.64199416901951 671.3373272649842 28.315309907064222 673.0491406126561 25.988625645108932 675.4142769597898 24.33034501398373 677.7794133069236 22.672064382858526 680.550242253639 21.8558098023858 683.3210712003544 21.03955522191307 686.2074862245024 21.150788762138593 689.0939012486504 21.262022302364116 691.7936939352631 22.289097782263468 694.493486621876 23.316173262162824 696.7239879639891 25.151555607868957 698.9544893061022 26.986937953575094 700.4821652244013 29.43846214899868 702.0098411427005 31.88998634442227 702.6747435652724 34.70097715916294 703.3396459878442 37.51196797390361 703.0721594555284 40.38811392762849 702.8046729232126 43.26425988135337 701.6328033465521 45.90442773347868 700.4609337698917 48.544595585603986 698.5073762029065 50.67235906507556 696.5538186359212 52.800122544547136 694.0231110715636 54.192704253389316 691.4924035072061 55.585285962231495 688.6495116955064 56.09688222792263 685.8066198838065 56.60847849361376 682.9491953479003 56.18552505208768 680.0917708119939 55.762571610561594 680.0943218343671 55.76338681433653 680.0968728567403 55.76420201811146 675.6358235649127 52.704519148110634 671.174774273085 49.644836278109814 665.5059331096116 43.250310582729384 659.8370919461383 36.85578488734895 657.4058635958102 30.2390263192613 654.9746352454821 23.62226775117365 655.114639632993 17.231822872125633 655.254644020504 10.841377993077618 659.256076980565 4.542116431564054 663.2575099406259 -1.7571451299495102 668.4074039188031 -5.351215135072552 673.5572978969803 -8.945285140195594 683.1223884911783 -9.879587120064983 692.6874790853763 -10.813889099934372 698.8490857417306 -9.675063513469045 705.010692398085 -8.536237927003718 711.8568483807657 -4.224534868406318 718.7030043634463 0.08716819019108257 722.6875398640261 8.956663525637644 726.6720753646059 17.826158861084206 726.5038515497029 24.621712935770244 726.3356277347998 31.417267010456282 722.1669865924031 38.47184621528752 717.9983454500064 45.526425420118755 712.6913967969932 50.08988168264018 707.3844481439801 54.65333794516161 700.4587216502903 55.73510844291555 693.5329951566004 56.8168789406695 686.4669166121448 55.15264353940709 679.4008380676893 53.48840813814468 673.9981358259943 50.29114120908429 668.5954335842994 47.09387428002389 665.319121321351 38.561537973380325 662.0428090584026 30.029201666736753 666.449139705431 23.17930801244151 670.8554703524595 16.329414358146266 678.6081647810481 12.001882380844487 686.3608592096366 7.674350403542707 693.4404746287425 7.554082952249059 700.5200900478485 7.433815500955411 707.019297180058 8.947111497044522 713.5185043122674 10.460407493133633 718.710586261572 14.53316232242767 723.9026682108766 18.605917151721705 727.2214709271564 26.50545450764682 730.5402736434361 34.40499186357194 726.6806908879062 40.35913060857122 722.8211081323761 46.31326935357051 718.2057070217443 51.34082567164863 713.5903059111125 56.36838198972675 706.4726508961415 57.88565019998791 699.3549958811706 59.40291841024907 692.5610213784751 58.48324251678164 685.7670468757794 57.5635666233142 680.8575368902666 53.19992931135285 675.9480269047536 48.83629199939149 676.3643757239429 37.415247047166346 676.7807245431321 25.994202094941205 680.7328531308488 19.87559261842603 684.6849817185655 13.756983141910855 691.6589388210728 10.855311734312659 698.63289592358 7.9536403267144635 700.7251641104781 7.935821885810784 702.8174322973762 7.918003444907104 704.853163486714 8.401430986012612 706.8888946760518 8.88485852711812 708.7497720754566 9.841435218830014 710.6106494748614 10.79801191054191 712.1885188024468 12.172141470593337 713.7663881300322 13.546271030644764 714.9695435463431 15.25808898444233 716.172698962654 16.969906938239895 716.9312130183644 18.919922345879467 717.6897270740748 20.86993775351904 717.9595148966282 22.94481562788752 718.2293027191815 25.019693502256008 717.9946842276552 27.098841843807385 717.7600657361287 29.177990185358766 717.0346769682735 31.14056879479371 716.3092882004185 33.10314740422866 715.1352887855046 34.83509112055545 713.9612893705907 36.56703483688223 712.406912209773 37.96768300993292 710.8525350489554 39.36833118298361 709.0081206158526 40.35627807513133 707.1637061827498 41.34422496727905 705.1364519308735 41.86205105873368 703.1091976789971 42.37987715018831 705.9481043706194 39.16448911016732 708.7870110622417 35.94910107014633 702.476849689482 41.311758699560045 696.1666883167223 46.674416328973756 688.8585152338292 50.28527738593725 681.550342150936 53.89613844290074 674.4756307277057 56.88048944173674 667.4009193044753 59.86484044057274 661.8396364927189 63.40627454269331 656.2783536809626 66.94770864481387 651.4857465124102 72.31637490677792 646.6931393438578 77.68504116874196 641.0222214114432 82.03132023366183 635.3513034790286 86.3775992985817 629.0885892052313 92.31280731066735 622.8258749314339 98.248015322753 617.6910450109465 101.97935478833809 612.5562150904592 105.71069425392317 606.7851310313465 112.38244132175049 601.0140469722337 119.0541883895778 597.0746739916075 124.34079865566018 593.1353010109813 129.62740892174256 588.9104313284714 135.04409071727218 584.6855616459616 140.46077251280178 580.3993035683023 147.62414941675442 576.1130454906431 154.78752632070706 572.1620446773757 160.53175776314043 568.2110438641083 166.2759892055738 563.3358558958419 171.35161116026558 558.4606679275754 176.42723311495737 548.6263971341577 174.0881199506244 538.7921263407402 171.74900678629143 536.1263945856388 165.38013726370625 533.4606628305372 159.01126774112106 529.7317076801949 152.71836132282345 526.0027525298525 146.42545490452582 523.5289267947776 138.2029437418763 521.0551010597026 129.98043257922683 517.9062144721759 123.2090900712446 514.757327884649 116.43774756326238 511.0933510303041 110.74302845964012 507.42937417595914 105.04830935601785 502.52901775589226 98.0238004095329 497.6286613358254 90.99929146304795 492.9762753647037 85.37255341715507 488.32388939358196 79.74581537126218 483.25049342743296 72.90626873929108 478.1770974612839 66.06672210731998 472.402560518525 60.406782235201085 466.6280235757661 54.746842363082195 462.16085550515595 49.98041956610094 457.6936874345457 45.21399676911969 456.7660784764803 43.91771340125065 455.8384695184149 42.62143003338161 455.2480474953994 41.14081840853349 454.6576254723839 39.66020678368538 454.43870574013687 38.08132011906061 454.2197860078898 36.502433454435824 454.38509219153525 34.91703671716604 454.55039837518075 33.331639979896266 455.0903228715584 31.83187650284116 455.630247367936 30.33211302578605 456.5134097399481 29.005149132698136 457.3965721119602 27.678185239610222 458.5716429210503 26.601144134302906 459.7467137301403 25.524103028995587 461.14539780567344 24.759582391113888 462.5440818812066 23.995061753232186 464.085087638996 23.587495558170634 465.6260933967854 23.179929363109082 467.2198575097845 23.153005377274074 468.8136216227836 23.126081391439065 470.36751444586224 23.481364438152347 471.92140726894087 23.83664748486563 473.3451164782123 24.553488496759325 474.76882568748374 25.27032950865302 475.97960523681246 26.307065652435234 477.1903847861412 27.343801796217445 477.1899380312665 27.34331437878325 Z" fill="url(#dddraw-gradient)"></path><path d="M 448.79372093508977 12.401586172404238 Q 448.79372093508977 12.401586172404238 451.6410799647331 13.927393371516352 454.4884389943764 15.453200570628464 460.46439421480216 17.405670047547186 466.4403494352279 19.35813952446591 467.1744082157904 26.980538578751066 467.90846699635284 34.60293763303622 462.02243120609603 32.04774937527739 456.1363954158393 29.492561117518562 462.6051895634255 28.679163230188482 469.07398371101164 27.865765342858403 472.37811775278175 33.55411149207011 475.68225179455186 39.242457641281824 470.1480807410659 33.12763535272339 464.6139096875799 27.01281306416496 463.95251462159575 24.32867711522738 463.2911195556116 21.644541166289798 463.5214236375835 18.889729148108827 463.7517277195554 16.13491712992786 464.8496180513065 13.597858588006797 465.94750838305765 11.060800046085735 467.79803555703876 9.007125679482126 469.64856273101987 6.953451312878517 472.0579760636234 5.598181369893142 474.4673893962269 4.242911426907767 477.18342267550594 3.727943028327717 479.89945595478497 3.2129746297476665 482.63773977943583 3.5922251028427272 485.37602360408664 3.971475575937788 487.8498589348316 5.205237296062503 490.3236942655766 6.438999016187218 492.2740698902576 8.398096805563066 494.2244455149386 10.357194594938914 495.4471565908024 12.836510397866657 496.6698676666662 15.3158262007944 497.03689602130544 18.055774998231684 497.4039243759447 20.79572379566897 496.8768420437426 23.509432225247878 496.34975971154057 26.223140654826786 494.9837523518149 28.626482727620953 493.61774499208923 31.02982480041512 491.5558339359942 32.8711699669823 489.4939228798992 34.71251513354948 486.9519907592996 35.79907406888218 484.4100586387 36.88563300421488 481.6542464176275 37.10364270096005 478.8984341965551 37.32165239770522 476.21727614201984 36.64828718306468 473.53611808748457 35.97492196842414 471.2103321555534 34.48068335812191 468.8845462236221 32.98644474781968 467.15764281531597 30.827779918795084 465.4307394070098 28.669115089770486 464.4835257650366 26.072036819454578 463.5363121230634 23.47495854913867 463.4679617657779 20.711381617995595 463.3996114084924 17.94780468685252 464.2172806363451 15.307076329086437 465.03494986419776 12.666347971320352 466.6530284931888 10.424953143073935 468.2711071221798 8.183558314827518 470.52018189272246 6.57617164628895 472.7692566632652 4.968784977750381 475.41384885318564 4.163700277424521 478.05844104310614 3.3586155770986608 480.82166115201517 3.4401254256313454 483.58488126092425 3.52163527416403 486.1774194139998 4.481205568897377 488.76995756707544 5.440775863630725 490.9203743353269 7.177939341404197 493.0707911035784 8.915102819177669 494.55393728371496 11.247978005301764 496.03708346385156 13.580853191425858 496.0360760668535 13.578496453374985 496.03506866985555 13.57613971532411 497.25948723299473 14.430360654959802 498.4839057961339 15.284581594595492 500.3866295167984 23.22952691246557 502.28935323746293 31.174472230335645 499.3247272807388 37.6639612010661 496.3601013240147 44.15345017179655 492.02560379402127 49.40328762684108 487.69110626402784 54.65312508188561 480.9084644650823 58.307428312908016 474.1258226661368 61.961731543930426 464.34045605662277 62.86658125345752 454.5550894471087 63.77143096298461 447.39883897196336 60.79666799817534 440.24258849681803 57.821905033366065 433.7574598323571 51.6392601741676 427.27233116789614 45.456615314969135 426.07725903015483 35.795594167814755 424.88218689241353 26.13457302066037 426.2394431325598 19.78191357962043 427.5966993727061 13.429254138580493 433.87400865709276 7.161300495401113 440.15131794147936 0.8933468522217325 449.05796548234105 -0.31909321982353145 457.96461302320273 -1.5315332918687954 464.5224071005226 -0.7378135530904375 471.08020117784247 0.055906185687920384 477.14268085915506 4.2314946966118665 483.20516054046766 8.407083207535813 486.8693515143549 14.083437391833195 490.53354248824206 19.759791576130578 490.92873795646153 26.807310433777502 491.32393342468106 33.85482929142442 485.25201675672355 39.48989205329996 479.18010008876604 45.1249548151755 472.7798829870129 46.36895454256352 466.37966588525984 47.612954269951544 459.93927227422637 46.85373598826145 453.49887866319295 46.09451770657135 447.4471769266935 42.25040223938868 441.39547519019396 38.406286772206 438.6266522740365 36.72284933859717 435.857829357879 35.03941190498834 434.5973698411433 34.10098344277934 433.33691032440754 33.16255498057034 432.33766743057134 31.949740150873936 431.33842453673515 30.736925321177527 430.6584743097375 29.320212978879525 429.9785240827399 27.903500636581523 429.65738526172123 26.365230169580233 429.33624644070255 24.826959702578943 429.3925836290291 23.256535462691808 429.44892081735566 21.686111222804673 429.87945969499486 20.174806340639996 430.3099985726341 18.663501458475324 431.0897161997888 17.299153044792877 431.8694338269436 15.93480463111043 432.9530129784887 14.79670867981707 434.03659213003385 13.658612728523712 435.36105513476986 12.812915429781821 436.68551813950586 11.967218131039928 438.1738871453678 11.463071451587297 439.66225615122977 10.958924772134665 441.22802708166626 10.825629740668315 442.7937980121028 10.692334709201965 444.34596818706945 10.937638439213558 445.8981383620361 11.182942169225148 447.34649557803544 11.792587596400864 448.7948527940348 12.402233023576578 448.7942868645623 12.401909597990407 Z" fill="url(#dddraw-gradient)"></path></svg>