<svg xmlns="http://www.w3.org/2000/svg" version="1.1" xmlns:xlink="http://www.w3.org/1999/xlink" xmlns:svgjs="http://svgjs.dev/svgjs" viewBox="0 0 800 800"><defs><linearGradient x1="50%" y1="0%" x2="50%" y2="100%" id="uundulate-grad"><stop stop-color="hsl(185, 53%, 55%)" stop-opacity="1" offset="45%"></stop><stop stop-color="hsl(0, 73%, 55%)" stop-opacity="1" offset="100%"></stop></linearGradient></defs><g stroke-width="2" stroke="url(#uundulate-grad)" fill="none"><path d="M674.991381906048 430.0146634394275C673.5127267544976 541.7150098812801 478.41898345678464 624.4990491495744 372.8113265911386 660.915757233023C267.20366972549255 697.3324653164716 214.16754858229928 660.5944017278338 168.0746289509475 604.8148622399814C121.98170931959578 549.0353227521291 107.43317853405932 493.1866276763012 151.5653123606496 393.1739676913321C195.6974461872399 293.1613077063631 270.86177349662216 117.07894936460963 379.90887131858017 124.75409431212944C488.9559691405382 132.4292392596492 676.4700370575986 318.3143169975748 674.991381906048 430.0146634394275C673.5127267544976 541.7150098812801 478.41898345678464 624.4990491495744 372.8113265911386 660.915757233023 "></path><path d="M662.4917472815011 428.6503022949862C661.0803037277484 535.2733602622092 474.8544578526588 614.2944886546718 374.04714902636033 649.0558918252364C273.2398402000618 683.8172949958009 222.6144518361046 648.7491433884649 178.6166649152688 595.5050375136968C134.61887799443303 542.2609316389286 120.7316440627846 488.9508136120021 162.85777180634807 393.4841836263497C204.98389954991148 298.01755364069743 276.73166652704913 129.93893885993276 380.8220780843727 137.2652135825653C484.9124896416963 144.5914883051978 663.9031908352539 322.0272443277631 662.4917472815011 428.6503022949862C661.0803037277484 535.2733602622092 474.8544578526588 614.2944886546718 374.04714902636033 649.0558918252364 "></path><path d="M649.9921431745323 427.2859411505449C648.6479112185773 528.8317106431382 471.2899627661111 604.0899281597692 375.2830019791601 637.1960264174498C279.27604119220916 670.3021246751304 231.06138560748798 636.903885049096 189.1587313971682 586.1952127874121C147.25607718684842 535.4865405257281 134.030140109088 484.71499954770286 174.15026176962465 393.7943995613673C214.27038343016125 302.87379957503174 282.6015900750543 142.7989283552559 381.7353153677434 149.77633285300118C480.8690406604326 156.75373735074646 651.3363751304873 325.74017165795146 649.9921431745323 427.2859411505449C648.6479112185773 528.8317106431382 471.2899627661111 604.0899281597692 375.2830019791601 637.1960264174498 "></path><path d="M637.4925390675635 425.9216410412598C636.2155187094063 522.3901220592235 467.7254676795633 593.885428700023 376.51885493195994 625.3362220448196C285.3122421843565 656.787015389616 239.50831937887142 625.0586877448834 199.70079787906764 576.8854490962837C159.8932763792638 528.7122104476839 147.3286361553914 480.4792465185599 185.44275173290123 394.10467653154114C223.556867310411 307.7301065445224 288.47151362305937 155.65897888573528 382.64855265111396 162.2875131585933C476.8255916791686 168.91604743145132 638.7695594257207 329.45316002329616 637.4925390675635 425.9216410412598C636.2155187094063 522.3901220592235 467.7254676795633 593.885428700023 376.51885493195994 625.3362220448196 "></path><path d="M624.9929349605948 424.5573714495529C623.7831262002353 515.9485639928869 464.1609725930156 583.6809597578549 377.7547078847597 613.4764481897673C291.34844317650385 643.2719366216799 247.9552531502548 613.213520958249 210.24286436096702 567.5757159227334C172.53047557167923 521.9379108872179 160.62713220169485 476.24352400699513 196.7352416961778 394.4149840192931C232.84335119066077 312.5864440315911 294.34143717106446 168.5190599337928 383.56178993448464 174.79872398176354C472.7821426979049 181.0783880297343 626.2027437209542 333.1661789062189 624.9929349605948 424.5573714495529C623.7831262002353 515.9485639928869 464.1609725930156 583.6809597578549 377.7547078847597 613.4764481897673 "></path><path d="M612.4933308536259 423.1930713402678C611.3507336910642 509.50697540897215 460.59647750646786 573.4764602981086 378.99056083755954 601.6166438171371C297.3846441686512 629.7568273361654 256.40218692163825 601.3683236540363 220.7849308428664 558.2659522316048C185.1676747640946 515.1635808091736 173.92562824799825 472.00777097785203 208.0277316594544 394.72526098946696C242.12983507091053 317.44275100108166 300.2113607190696 181.37911046427223 384.4750272178553 187.30990428735566C468.738693716641 193.24069811043915 613.6359280161877 336.87916727156346 612.4933308536259 423.1930713402678C611.3507336910642 509.50697540897215 460.59647750646786 573.4764602981086 378.99056083755954 601.6166438171371 "></path><path d="M599.993711487868 421.82877123098274C598.918325923104 503.06538682505743 457.031967161131 563.2719608383622 380.22639853157034 589.7568394445068C303.4208299020095 616.2417180506511 264.84910543423257 589.5231263498237 231.32698206597678 548.9561885404765C197.80485869772093 508.3892507311293 187.22410903551258 467.77201794870916 219.3202063639419 395.0355379596407C251.41630369237117 322.2990579705723 306.08126900828563 194.23916099475161 385.3882492424369 199.82108459294778C464.6952294765881 205.403008191144 601.0690970526321 340.59215563690805 599.993711487868 421.82877123098274C598.918325923104 503.06538682505743 457.031967161131 563.2719608383622 380.22639853157034 589.7568394445068 "></path><path d="M587.4941073808993 420.4645016392758C586.485933413933 496.62382875872083 453.46747207458327 553.0674918961942 381.4622514843701 577.8970655894545C309.45703089415684 602.726639282715 273.296039205616 577.6779595631892 241.86904854787616 539.6464553669263C210.4420578901363 501.6149511706633 200.52260508181598 463.5362954371443 230.6126963272185 395.34584544739266C260.70278757262093 327.155395457641 311.9511925562907 207.09924204280912 386.3014865258076 212.3322954161181C460.6517804953244 217.565348789427 588.5022813478654 344.30517451983087 587.4941073808993 420.4645016392758C586.485933413933 496.62382875872083 453.46747207458327 553.0674918961942 381.4622514843701 577.8970655894545 "></path><path d="M574.9945032739304 419.10018627120166C574.053540904762 490.18222491601705 449.90297698803556 542.8629771776588 382.69810443716983 566.0372459580352C315.4932318863042 589.2115147384116 281.7429729769994 565.8327470001875 252.41111502977554 530.3366764170088C223.0792570825517 494.84060583383007 213.82110112811944 459.30052714921237 241.90518629049507 395.65610715877744C269.9892714528707 332.0116871683426 317.8211161042958 219.95927731449945 387.21472380917817 224.84346046292114C456.6083315140605 229.72764361134284 575.935465643099 348.0181476263864 574.9945032739304 419.10018627120166C574.053540904762 490.18222491601705 449.90297698803556 542.8629771776588 382.69810443716983 566.0372459580352 "></path><path d="M562.4948991669617 417.7359166794947C561.6211483955909 483.74066684968045 446.33848190148785 532.6585082354907 383.9339573899697 554.177472102983C321.5294328784516 575.6964359704754 290.18990674838284 553.987580213553 262.953181511675 521.0269432434584C235.71645627496713 488.0663062733639 227.11959717442284 455.0648046376475 253.19767625377165 395.9664146465294C279.27575533312046 336.86802465541126 323.6910396523009 232.81935836255695 388.12796109254884 237.3546712860914C452.5648825327967 241.88998420962582 563.3686499383324 351.7311665093091 562.4948991669617 417.7359166794947C561.6211483955909 483.74066684968045 446.33848190148785 532.6585082354907 383.9339573899697 554.177472102983 "></path><path d="M549.9952798012038 416.3715707938425C549.1887406276308 477.29903248939854 442.7739715561511 522.4539629993772 385.16979508398043 542.3176219539855C327.5656186118099 562.1812809085939 298.63682526097716 542.1423371329732 273.4952327347853 511.7171337759628C248.35364020859345 481.29193041895246 240.41807796193717 450.82900583213734 264.49015095825916 396.276645840336C288.5622239545811 341.7242858485347 329.56094794151693 245.67936311666915 389.0411831171304 249.86580581531632C448.5214182927439 254.0522485139635 550.8018189747768 355.4441090982865 549.9952798012038 416.3715707938425C549.1887406276308 477.29903248939854 442.7739715561511 522.4539629993772 385.16979508398043 542.3176219539855 "></path><path d="M537.4956756942349 415.00737749608095C536.7563481184598 470.85755071700726 439.20947646960326 512.2495703511544 386.40564803678024 530.4579243928787C333.6018196039572 548.666278434603 307.0837590323606 530.2972466402841 284.0372992166847 502.4074768963578C260.9908394010088 474.51770715243174 253.71657400824057 446.5933596145178 275.78264092153574 396.58702962203324C297.84870783483086 346.58069962954875 335.430871489522 258.539520458672 389.954420400501 262.3770929324319C444.47796931148 266.2146654061918 538.2350032700102 359.1572042751546 537.4956756942349 415.00737749608095C536.7563481184598 470.85755071700726 439.20947646960326 512.2495703511544 386.40564803678024 530.4579243928787 "></path><path d="M524.9960715872662 413.6429858340615C524.3239556092886 464.41587058035816 435.64498138305555 502.04497933867367 387.64150098958004 518.598028467514C339.6380205961046 535.1510775963543 315.530692803744 518.4519577833371 294.5793656985841 493.09762165249504C273.6280385934242 467.7432855216531 267.015070054544 442.3575150326405 287.0751308848123 396.8972150394727C307.1351917150806 351.43691504630493 341.3007950375271 271.39947943641704 390.8676576838717 274.8881816852896C440.4345203302163 278.37688393416227 525.6681875652437 362.8701010877648 524.9960715872662 413.6429858340615C524.3239556092886 464.41587058035816 435.64498138305555 502.04497933867367 387.64150098958004 518.598028467514 "></path><path d="M512.4964674802974 412.27868572477644C511.89156310011765 457.97428199644344 432.08048629650784 491.84047987892745 388.87735394237984 506.73822409488366C345.67422158825195 521.6359683108399 323.97762657512743 506.60676047912443 305.1214321804835 483.7878579613666C286.2652377858396 460.96895544360893 280.3135661008474 438.12176200349757 298.3676208480889 397.20749200964656C316.4216755953304 356.29322201579555 347.17071858553226 284.2595299668964 391.7808949672423 287.3993619908818C436.39107134895244 290.5391940148671 513.1013718604771 366.58308945310944 512.4964674802974 412.27868572477644C511.89156310011765 457.97428199644344 432.08048629650784 491.84047987892745 388.87735394237984 506.73822409488366 "></path><path d="M499.99686337332855 410.9144161330695C499.45917059094654 451.53272393010684 428.51599120996 481.63601093675925 390.1132068951797 494.8784502398315C351.71042258039927 508.1208895429037 332.4245603465108 494.7615936924899 315.6634986623829 474.47812478781634C298.90243697825497 454.1946558831428 293.6120621471508 433.8860394919327 309.6601108113655 397.51779949739847C325.70815947558015 361.1495595028643 353.04064213353735 297.11961101495393 392.694132250613 299.91057281405205C432.3476223676886 302.70153461315016 500.53455615571056 370.29610833603215 499.99686337332855 410.9144161330695C499.45917059094654 451.53272393010684 428.51599120996 481.63601093675925 390.1132068951797 494.8784502398315 "></path><path d="M487.49724400757066 409.55010076499536C487.0267628229865 445.09112008740306 424.95148086462325 471.4314962182239 391.3490445891904 483.01863060841214C357.7466083137576 494.6057649986003 340.8714788591052 482.9163811294883 326.20554988549327 465.1683458378989C311.53962091188134 447.42031054630957 306.91054293466516 429.6502712040007 320.952585515853 397.82806120878325C334.99462809704085 366.0058512135658 358.9105504227534 309.97964628664425 393.60735427519455 312.4217378608551C428.30415812763573 314.86382943506595 487.96772519215494 374.0090814425877 487.49724400757066 409.55010076499536C487.0267628229865 445.09112008740306 424.95148086462325 471.4314962182239 391.3490445891904 483.01863060841214 "></path><path d="M474.9976399006018 408.18578539692123C474.5943703138154 438.64951624469927 421.38698577807554 461.2269814996886 392.58489754199024 471.15881097699275C363.78280930590495 481.09064045429693 349.3184126304886 471.0711685664866 336.74761636739265 455.8585668879814C324.1768201042967 440.64596520947623 320.2090389809686 425.41450291606867 332.2450754791296 398.138322920168C344.28111197729055 370.86214292426735 364.78047397075846 322.8396815583346 394.52059155856523 324.93290290765816C424.26070914637194 327.02612425698175 475.4009094873884 377.72205454914325 474.9976399006018 408.18578539692123C474.5943703138154 438.64951624469927 421.38698577807554 461.2269814996886 392.58489754199024 471.15881097699275 "></path><path d="M462.4980357936331 406.8215005464253C462.1619778046443 432.2079429195736 417.8224906915278 451.02249729873137 393.82075049479005 459.29902186315155C369.81901029805226 467.5755464275717 357.765346401872 459.2259865210631 347.28968284929203 446.54881845564205C336.8140192967121 433.8716503902211 333.507535027272 421.1787651457148 343.53756544240616 398.4486151491309C353.5675958575403 375.718465152547 370.65039751876355 335.699747347603 395.43382884193585 337.44409847203934C420.21726016510814 339.18844959647566 462.83409378262184 381.43505817327696 462.4980357936331 406.8215005464253C462.1619778046443 432.2079429195736 417.8224906915278 451.02249729873137 393.82075049479005 459.29902186315155 "></path><path d="M449.9984316866643 405.4572004371402C449.72958529547327 425.7663543356589 414.25799560498 440.8179978389851 395.05660344758985 447.43921749052123C375.85521129019963 454.0604371420573 366.2122801732554 447.3807892168504 357.8317493311915 437.23905476451364C349.4512184891275 427.09732031217686 346.8060310735754 416.9430121165718 354.83005540568274 398.75889211930473C362.8540797377901 380.5747721220376 376.52032106676864 348.5597978780824 396.34706612530647 349.95527877763146C416.1738111838443 351.3507596771805 450.2672780778553 385.14804653862154 449.9984316866643 405.4572004371402C449.72958529547327 425.7663543356589 414.25799560498 440.8179978389851 395.05660344758985 447.43921749052123 "></path><path d="M437.4988123209064 404.09290032785515C437.29717752751316 419.32476575174417 410.69348525964324 430.6134983792388 396.2924411416006 435.5794131178909C381.89139702355794 440.545327856543 374.6591986858498 435.53559191263787 368.3738005543018 427.92929107338523C362.0884024227538 420.32299023413265 360.10451186108975 412.70725908742884 366.12253011017026 399.0691690894785C372.1405483592508 385.4310790915282 382.39022935598473 361.41984840856185 397.2602881498881 362.46645908322364C412.13034694379144 363.5130697578854 437.70044711429966 388.8610349039662 437.4988123209064 404.09290032785515C437.29717752751316 419.32476575174417 410.69348525964324 430.6134983792388 396.2924411416006 435.5794131178909 "></path><path d="M424.9992082139376 402.72860021857014C424.8647850183421 412.88317716782944 407.1289901730955 420.40899891949255 397.5282940944004 423.7196087452606C387.9275980157053 427.0302185710286 383.1061324572332 423.6903946084252 378.9158670362012 418.6195273822568C374.72560161516924 413.54866015608843 373.4030079073932 408.4715060582859 377.41502007344684 399.37944605965237C381.4270322395005 390.2873860610188 388.2601529039898 374.27989893904123 398.1735254332587 374.97763938881576C408.08689796252764 375.6753798385903 425.1336314095331 392.57402326931077 424.9992082139376 402.72860021857014C424.8647850183421 412.88317716782944 407.1289901730955 420.40899891949255 397.5282940944004 423.7196087452606 "></path><path d="M412.49960410696883 401.36430010928507C412.43239250917105 406.4415885839147 403.56449508654777 410.2044994597463 398.7641470472002 411.8598043726303C393.96379900785263 413.5151092855143 391.5530662286166 411.8451973042126 389.4579335181006 409.3097636911284C387.3628008075846 406.7743300780442 386.7015039536966 404.235753029143 388.7075100367234 399.68972302982615C390.71351611975024 395.1436930305094 394.1300764519949 387.1399494695206 399.0867627166294 387.4888196944079C404.0434489812638 387.83768991929514 412.56681570476655 396.2870116346554 412.49960410696883 401.36430010928507C412.43239250917105 406.4415885839147 403.56449508654777 410.2044994597463 398.7641470472002 411.8598043726303 "></path></g></svg>